<?xml version="1.0" encoding="UTF-8"?> <!-- Generator: Adobe Illustrator 16.0.0, SVG Export Plug-In . SVG Version: 6.00 Build 0) --> <svg xmlns="http://www.w3.org/2000/svg" xmlns:xlink="http://www.w3.org/1999/xlink" id="Calque_1" x="0px" y="0px" width="100px" height="90px" viewBox="0 0 100 90" xml:space="preserve"> <path fill="#FFFFFF" d="M49.938,50.092c-11.422,0-18.45,7.988-18.45,7.988L0.46,24.464c0,0,14.363-22.966,49.391-22.966h0.301 c35.025,0,49.39,22.966,49.39,22.966L68.511,58.08c0,0-7.032-7.994-18.453-7.994L49.938,50.092z"></path> <path fill="none" stroke="#262B64" stroke-width="0.25" stroke-miterlimit="10" d="M49.938,50.092 c-11.422,0-18.45,7.988-18.45,7.988L0.46,24.464c0,0,14.363-22.966,49.391-22.966h0.301c35.025,0,49.39,22.966,49.39,22.966 L68.511,58.08c0,0-7.032-7.994-18.453-7.994L49.938,50.092z"></path> <path fill="#076A98" d="M96.295,24.272c0,0-14.341-20.167-46.379-20.167v0.004c-32.038,0-46.38,20.167-46.38,20.167L31.422,54.17 c0,0,8.257-6.82,18.589-6.855c10.244,0.116,18.4,6.851,18.4,6.851L96.295,24.272z"></path> <path fill="#FFFFFF" d="M53.662,47.626l1.475,0.477l0.367-1.761l1.946-0.969l1.541,1.911l0.14,1.794l1.107,0.571l-0.047-0.691 l2.263-0.975c0,0-0.411-1.445-0.421-1.885C62.025,45.711,62.3,44.57,62.3,44.57l-1.984-2.826l-0.534-4.467l-7.408-1.643 L53.662,47.626z"></path> <path fill="#FFFFFF" d="M46.081,47.741l-1.476,0.476l-0.37-1.762l-1.944-0.969l-1.542,1.912l-0.139,1.793l-1.106,0.572l0.046-0.691 l-2.223-1.142c0,0,0.371-1.278,0.382-1.718c0.009-0.388-0.267-1.528-0.267-1.528l1.984-2.826l0.535-4.468l7.293-1.375L46.081,47.741 z"></path> <path fill="#FFFFFF" d="M56.042,29.898c-0.066-0.269-0.201-0.513-0.329-0.756c-0.639-1.212-1.117-2.506-1.424-3.839 c-0.065-0.286-0.123-0.578-0.259-0.838c-0.104-0.198-0.248-0.373-0.396-0.545c-0.741-0.887-1.485-1.772-2.229-2.659l-1.537-0.96 l-1.537,0.961c-0.743,0.886-1.486,1.772-2.229,2.658c-0.145,0.173-0.29,0.347-0.395,0.546c-0.135,0.259-0.194,0.552-0.26,0.837 c-0.305,1.333-0.784,2.626-1.422,3.839c-0.128,0.244-0.265,0.489-0.33,0.757c-0.063,0.267-0.055,0.545-0.045,0.82 c0.029,0.794,0.029,1.806,0.059,2.6l2.819,3.538c0,0,1.024-1.506,1.642-3.361c0.058-0.168,1.146-0.978,1.719-1.394 c0.551,0.367,1.786,1.25,1.947,1.891c0.269,1.068,1.146,2.405,1.146,2.405l3.044-3.08c0.028-0.793,0.03-1.806,0.06-2.6 C56.099,30.444,56.106,30.165,56.042,29.898 M51.082,32.146l-1.103-1.128l-0.11-0.363l-1.213,1.491 c-0.048-0.7-0.075-1.402-0.083-2.105c-0.002-0.116-0.002-0.233,0.02-0.349c0.066-0.354,1.022-1.615,1.276-1.874 c0.255,0.259,1.211,1.518,1.276,1.873c0.022,0.115,0.021,0.232,0.021,0.35C51.157,30.743,51.13,31.444,51.082,32.146"></path> <path fill="#FFFFFF" d="M31.516,34.419c-0.808-0.123-1.613-0.43-2.257-0.11c-0.185,0.092-0.635,0.564-0.635,0.564 s-0.933-0.001-1.27,0.518c-0.106,0.163-0.121,1.125-0.121,1.125s-0.426,0.334-0.307,0.838c0.131,0.55,0.969,0.972,1.529,0.871 c0.561-0.102,0.825-0.828,0.729-1.384c-0.154-0.033-0.291-0.134-0.369-0.269c0.543-0.222,1.344-0.472,2.061-0.19 c-0.234,0.352-0.393,0.717-0.199,1.093c0.179,0.218,0.602,0.308,0.863,0.199c0.261-0.109,0.702-0.683,1.162,0.349 c0.171,0.385-2.789,0.535-2.426,3.417c0.821,1.853,2.254,2.369,2.754,1.639c1.199,1.512,2.478,1.492,3.336,1.207 c1.639-0.546,2.181-1.118,2.598-1.625c0.494-0.599,1.719-4.18,1.719-4.18s1.871,0.936,3.703-0.439 c1.588-1.191,2.406-2.635-0.629-4.984c-0.026-0.942,0.019-3.799,0.461-4.527c0-0.488-1.57-1.942-2.994-2.498 c-0.576-0.225-2.094-0.473-2.608-0.812c-0.38-0.25-0.429-0.702-0.724-1.043c-0.141-0.163-0.352-0.708-0.723-1.06 c-0.4-0.377-0.963-0.562-1.112-0.737c-0.749-0.866-0.158-0.736-1.11-1.375c-0.223-0.151-0.909-0.308-1.114-0.481 c-0.19-0.159-0.457-0.679-0.651-0.832c-0.829-0.654-1.765-0.24-2.803-0.024c-0.785,0.165-1.596,0.103-1.869,1.119 c-0.107,0.4-0.116,0.792,0.082,1.158c0.246,0.455,0.645,0.851,1.145,1.003c0.499,0.153,1.1,0.022,1.424-0.385 c0.322-0.408,0.143-1.042-0.286-1.337c0.161-0.069,0.452-0.179,0.613-0.247c0.509,0.428,0.724,1.031,1.182,1.389 c-0.147,0.292-0.146,0.783,0.083,1.017s0.465,0.292,0.791,0.25c0.176-0.024,0.436-0.205,0.613-0.183 c0.178,0.02,0.453,0.276,0.431,0.451c-1.061-0.066-1.504,0.751-1.504,0.751s-0.694-0.037-0.765,0.445 c-0.064,0.446,0.336,0.951,0.788,0.906c-0.063,0.504,0.237,0.924,0.69,1.167c0.451,0.242,1.105,0.077,1.313-0.388 c0.543,0.208,1.419,0.508,1.491,1.08c0.01,0.085-0.079,0.349-0.123,0.422c-0.172,0.281-0.729-0.218-1.029-0.356 c-0.453-0.208-0.951-0.171-1.423-0.014c-0.239,0.08-0.661,0.54-0.661,0.54s-0.568,0.154-0.826,0.512 c-0.328,0.457-0.133,1.286,0.322,1.618c0.688,0.501,1.02-0.087,1.167-0.597c0.392-0.143,0.753-0.223,1.116-0.02 c0.232,0.13,0.574,0.376,0.682,0.617c0.22,0.502,0.216,1.097,0.223,1.646c-0.837-0.309-1.078-0.473-1.793-0.608 c-0.445-0.084-1.324-0.017-1.732-0.217c-0.549-0.271-0.969-0.466-1.468-0.82c-0.5-0.354-1.39-0.775-1.959-0.55 c-0.229,0.09-0.325,0.152-0.533,0.286c-0.44,0.287-0.857,0.333-1.376,0.43c-0.453,0.085-0.862,0.296-1.313,0.381 c-0.791,0.148-0.743,0.982-0.743,0.982s-0.743,0.59,0.07,1.298c0.366,0.32,0.868,0.503,1.271,0.228 c0.181-0.124,0.366-0.669,0.269-0.865c0.915-0.134,1.807-0.417,2.63-0.835c-0.318,0.213-0.6,0.34-0.801,0.664 c-0.072,0.117-0.127,0.404-0.11,0.54c0.034,0.27,0.336,0.656,0.606,0.609c0.27-0.047,0.451-0.383,0.714-0.459 C30.538,33.071,30.973,33.871,31.516,34.419"></path> <path fill="#F3C050" d="M48.222,44.003c0.129-0.135,0.307-0.251,0.326-0.435c0.008-0.083,0.048-0.579,0.021-0.658 c-0.367-1.104-0.572-1.867-0.734-3c-0.035-0.251-0.027-0.508,0.014-0.756c0.037-0.221,0.25-0.336,0.324-0.546 c0.105-0.291,0.182-0.683,0.286-0.974c0.12-0.342,0.137-0.689,0.378-0.961c0.473-0.535,1.579-0.565,2.067-0.045 c0.511,0.542,0.311,1.305,0.655,1.963c0.145,0.282,0.303,0.601,0.359,0.913c0.044,0.253-0.035,0.51-0.108,0.757 c-0.304,1.009-0.527,2.042-0.669,3.085c-0.008,0.07-0.019,0.142,0,0.21c0.024,0.097,0.098,0.172,0.163,0.249 c0.367,0.421,0.558,0.962,0.737,1.489c0.217,0.632,0.434,1.265,0.65,1.896c0.047,0.137,0.085,0.303,0.085,0.303l0.944,0.146 c0,0,0.155-0.196,0.207-0.495c0.092-0.538,0.116-1.913,0.126-2.455c0.048-2.511-0.325-4.227-0.7-6.717 c-0.051-0.332,0.105-0.666-0.01-0.982c-0.182-0.504-0.72-0.942-0.94-1.431c-0.193-0.428-0.295-0.89-0.479-1.322 c-0.357-0.838-1.034-1.539-1.863-1.931c-0.056-0.026-0.113-0.051-0.174-0.048c-0.075,0.004-0.139,0.051-0.199,0.096 c-0.63,0.471-1.275,0.957-1.694,1.621c-0.479,0.761-0.624,1.696-1.124,2.445c-0.094,0.14-0.375,0.414-0.434,0.57 c-0.054,0.144-0.01,0.28-0.021,0.432c-0.22,2.723-0.906,4.606-0.728,7.332c0.054,0.816-0.023,2.245,0.394,2.988 c0.262-0.047,0.643-0.104,0.864-0.16c0.419-0.93,0.531-1.159,0.71-2.064C47.735,45.117,47.938,44.298,48.222,44.003"></path> <path fill="#F3C050" d="M54.924,33.304c0.035,0.179-0.014,0.53-0.06,0.704c-0.045,0.17-0.164,0.312-0.269,0.454 c-0.361,0.492-0.697,1.168-0.768,1.772c-0.491-0.958-0.889-2.047-1.27-2.965c-0.185-0.438-0.046-1.021-0.042-1.49 c0.006-0.576,0.114-1.155,0.032-1.726c-0.09-0.623-0.588-1.213-0.892-1.764c-0.39-0.702-0.563-1.117-1.139-1.678 c-0.107-0.104-0.246-0.301-0.395-0.313c-0.098-0.008-0.215-0.155-0.306-0.119c-1.136,0.462-1.417,1.784-2.142,2.793 c-0.713,0.991-0.464,4.192-0.464,4.192s-0.671,2.136-1.407,3.107c0.152-1.24-1.012-2.216-1.012-2.216s-0.105-3.173,0.395-5.222 c0.133-0.542,0.683-1.409,0.859-1.937c0.238-0.703,0.359-1.45,0.699-2.109c0.387-0.748,1.189-1.41,1.712-2.072 c0.438-0.558,0.958-0.75,1.41-1.156c1.134,0.703,1.982,1.488,2.655,2.632c0.257,0.435,0.646,0.987,0.818,1.462 c0.292,0.818,0.588,1.637,0.884,2.456c0.171,0.472,0.53,1.142,0.603,1.637c0.085,0.595,0.065,1.201,0.058,1.803 C54.877,32.259,54.796,32.608,54.924,33.304"></path> <path fill="#9BCADB" d="M34.923,37.649c-0.252,0.264-0.506,0.645-0.749,0.998c-0.077,0.114-0.411-0.01-0.549,0.003 c-0.72,0.072-1.138,0.236-1.604,0.786c-0.465,0.549-0.853,1.375-0.572,2.038c0.277,0.661,1.256,1.086,1.961,0.916 c0.688,0.805,1.662,1.117,2.68,0.886c0.458-0.105,1.174-0.523,1.492-0.865c0.318-0.343,0.626-1.028,0.514-1.479 c-0.113-0.453-0.681-0.635-1.15-0.613c-0.47,0.02-0.813,0.373-0.705,0.824c0.283,0.037,0.811,0.274,0.949,0.52 c0.221,0.393-0.564,0.826-1.015,0.765c-0.451-0.062-0.782-0.434-1.066-0.786c-0.313-0.39-0.64-0.626-0.478-1.097 c0.129-0.37,0.549-0.531,0.841-0.862c0.373-0.424,1.091-0.545,1.641-0.691c0.575-0.152,1.16-0.188,1.663,0.128 c0.617,0.391,1.006,1.273,1.01,1.998c0.203-0.85,0.557-1.8,0.917-2.597c-0.612-0.226-1.022-0.501-1.372-0.923 c-0.357,0.117-1.069,0.084-1.439,0.015c-0.318-0.059-0.597-0.251-0.902-0.359C36.349,37.027,35.388,37.162,34.923,37.649"></path> <path fill="#9BCADB" d="M43.645,33.059c0.078-0.417,0.081-0.958,0.033-1.379c-0.013-0.115-0.132-0.271-0.208-0.357 c-0.111-0.127-0.3-0.144-0.469-0.148c-1.145-0.036-2.625,0.229-3.266,1.168c-0.204,0.297-0.281,0.786-0.529,1.049 c-0.16,0.17-0.244,0.055-0.438,0.189c-0.465,0.319-0.878,0.737-1.097,1.253c-0.221,0.517-0.227,1.141,0.07,1.618 s0.924,0.758,1.461,0.581c0.116-0.038,0.211-0.207,0.332-0.208c0.137,0,0.281,0.181,0.4,0.248c0.832,0.466,1.777,0.827,2.725,0.706 c0.947-0.122,1.865-0.859,1.91-1.805c0.027-0.635-0.29-1.333-0.863-1.622c-0.572-0.287-1.367-0.159-1.9,0.196 c-0.246,0.165-0.592,0.731-0.332,0.875c0.097,0.054,0.326,0.067,0.436,0.049c0.313-0.051,0.674-0.295,0.987-0.346 c0.198,0.281,0.31,0.803,0.038,1.016c-0.271,0.212-0.861,0.298-1.206,0.332c-0.296,0.028-0.8-0.023-1.081-0.118 c-0.685-0.23-0.836-1.152-0.631-1.838c0.205-0.688,0.82-1.006,1.496-1.264C42.153,33.011,42.974,32.919,43.645,33.059"></path> <path fill="#FFFFFF" d="M68.26,34.457c0.809-0.121,1.612-0.429,2.257-0.11c0.184,0.092,0.635,0.565,0.635,0.565 s0.931-0.001,1.271,0.519c0.105,0.163,0.119,1.124,0.119,1.124s0.427,0.335,0.308,0.839c-0.132,0.55-0.969,0.971-1.53,0.87 c-0.561-0.102-0.823-0.827-0.727-1.383c0.152-0.034,0.29-0.133,0.368-0.269c-0.544-0.222-1.346-0.472-2.062-0.191 c0.235,0.353,0.393,0.717,0.199,1.092c-0.181,0.219-0.601,0.31-0.861,0.2c-0.262-0.109-0.704-0.683-1.163,0.348 c-0.172,0.386,2.789,0.534,2.425,3.418c-0.821,1.852-2.252,2.368-2.752,1.638c-1.2,1.511-2.479,1.493-3.339,1.207 c-1.639-0.546-2.181-1.118-2.595-1.624c-0.495-0.599-1.721-4.18-1.721-4.18s-1.871,0.935-3.702-0.44 c-1.588-1.191-2.406-2.635,0.63-4.983c0.024-0.942-0.02-3.8-0.461-4.528c0-0.487,1.567-1.942,2.993-2.497 c0.574-0.225,2.093-0.473,2.607-0.812c0.379-0.25,0.429-0.702,0.724-1.044c0.141-0.163,0.352-0.708,0.723-1.06 c0.402-0.378,0.963-0.563,1.114-0.738c0.747-0.866,0.157-0.735,1.108-1.375c0.224-0.15,0.91-0.308,1.115-0.48 c0.189-0.16,0.457-0.68,0.649-0.833c0.831-0.653,1.768-0.24,2.805-0.022c0.785,0.164,1.595,0.102,1.869,1.117 c0.107,0.401,0.115,0.793-0.083,1.158c-0.246,0.457-0.645,0.852-1.144,1.004c-0.499,0.153-1.1,0.022-1.423-0.385 c-0.323-0.408-0.145-1.042,0.285-1.337c-0.162-0.069-0.453-0.179-0.613-0.247c-0.51,0.428-0.726,1.029-1.181,1.388 c0.146,0.292,0.144,0.784-0.085,1.018c-0.229,0.233-0.463,0.291-0.79,0.248c-0.177-0.022-0.438-0.203-0.613-0.183 c-0.178,0.02-0.455,0.277-0.432,0.452c1.062-0.065,1.505,0.751,1.505,0.751s0.695-0.037,0.765,0.445 c0.063,0.446-0.338,0.949-0.788,0.906c0.063,0.505-0.237,0.925-0.69,1.167c-0.451,0.242-1.104,0.077-1.315-0.388 c-0.542,0.208-1.418,0.507-1.49,1.08c-0.01,0.085,0.08,0.348,0.124,0.422c0.17,0.281,0.728-0.22,1.029-0.357 c0.453-0.207,0.95-0.172,1.423-0.013c0.239,0.08,0.662,0.539,0.662,0.539s0.566,0.155,0.823,0.513 c0.33,0.458,0.135,1.285-0.322,1.618c-0.686,0.501-1.019-0.086-1.165-0.598c-0.392-0.142-0.755-0.221-1.117-0.019 c-0.231,0.129-0.574,0.375-0.681,0.617c-0.221,0.502-0.218,1.097-0.223,1.646c0.835-0.309,1.077-0.473,1.791-0.607 c0.447-0.083,1.327-0.018,1.733-0.218c0.549-0.27,0.969-0.467,1.469-0.82c0.499-0.354,1.389-0.775,1.96-0.551 c0.229,0.091,0.324,0.153,0.532,0.287c0.441,0.285,0.857,0.333,1.376,0.43c0.45,0.084,0.863,0.296,1.313,0.381 c0.79,0.149,0.741,0.981,0.741,0.981s0.743,0.591-0.069,1.299c-0.367,0.319-0.87,0.502-1.271,0.228 c-0.182-0.124-0.365-0.669-0.268-0.865c-0.914-0.134-1.807-0.418-2.631-0.835c0.319,0.214,0.601,0.341,0.803,0.665 c0.071,0.117,0.125,0.404,0.109,0.54c-0.034,0.27-0.338,0.657-0.607,0.609c-0.269-0.047-0.45-0.382-0.714-0.459 C69.237,33.109,68.802,33.91,68.26,34.457"></path> <path fill="#9BCADB" d="M64.695,37.557c0.253,0.266,0.901,1.087,0.901,1.087s0.379-0.008,0.517,0.006 c0.72,0.072,1.255,0.24,1.722,0.789c0.467,0.548,0.694,1.466,0.415,2.128c-0.277,0.663-1.149,1.056-1.854,0.885 c-0.812,0.649-1.752,1.049-2.77,0.818c-0.459-0.105-1.228-0.518-1.544-0.861c-0.32-0.342-0.577-0.936-0.465-1.388 s0.581-0.847,1.049-0.825c0.47,0.021,0.838,0.596,0.73,1.048c-0.284,0.037-0.668,0.195-0.807,0.441 c-0.22,0.393,0.522,0.688,0.974,0.626c0.451-0.062,0.706-0.32,0.99-0.671c0.314-0.39,0.683-0.598,0.519-1.069 c-0.127-0.369-0.554-0.861-0.916-1.02c-0.519-0.227-1.057-0.415-1.604-0.561c-0.575-0.152-1.108-0.176-1.61,0.14 c-0.617,0.39-0.963,1.152-0.967,1.877c-0.368-0.875-0.578-1.692-0.938-2.489c0.673-0.196,0.976-0.471,1.455-0.946 c0.356,0.117,0.911,0.107,1.28,0.038c0.319-0.059,0.698-0.341,1.006-0.449C63.418,36.937,64.23,37.069,64.695,37.557"></path> <path fill="#9BCADB" d="M56.093,33.07c-0.077-0.415-0.081-0.942-0.033-1.363c0.014-0.115,0.045-0.172,0.122-0.259 c0.11-0.125,0.4-0.279,0.571-0.285c1.145-0.035,2.461,0.127,3.104,1.067c0.204,0.296,0.319,0.652,0.566,0.915 c0.162,0.17,0.368,0.292,0.563,0.425c0.466,0.32,0.878,0.738,1.098,1.255c0.221,0.515,0.226,1.139-0.07,1.616 c-0.299,0.478-0.923,0.758-1.462,0.581c-0.116-0.038-0.228-0.095-0.35-0.096c-0.138-0.001-0.263,0.07-0.383,0.137 c-0.832,0.465-1.777,0.826-2.725,0.705c-0.947-0.122-1.863-0.859-1.908-1.805c-0.03-0.635,0.272-1.323,0.844-1.61 c0.572-0.287,1.385-0.172,1.917,0.184c0.246,0.164,0.529,0.777,0.27,0.92c-0.098,0.054-0.434-0.032-0.544-0.049 c-0.315-0.051-0.501-0.242-0.814-0.294c-0.199,0.283-0.279,0.855-0.008,1.067c0.271,0.215,0.881,0.26,1.226,0.293 c0.295,0.029,0.718-0.018,1-0.113c0.684-0.229,0.867-1.168,0.661-1.854c-0.205-0.688-0.857-1.004-1.534-1.261 C57.563,33.003,56.764,32.93,56.093,33.07"></path> <path fill="#FFFFFF" d="M34.172,49.333c0.243-0.092,0.595-0.135,0.822-0.261c0.269-0.15,0.432-0.212,0.733-0.274 c0.584-0.123,1.115-0.096,1.676,0.105c0.719,0.258,1.372,0.542,2.094,1.308c0-0.185,0.162-0.992,0.053-1.139 c-0.109-0.148-0.305-0.253-0.465-0.345c-1.217-0.688-2.768-1.014-4.143-0.74c-0.211,0.041-0.42,0.101-0.629,0.159 c-0.842,0.242-2.039,0.84-2.881,1.08c-1.338,0.383-2.271,0.574-3.636,0.846c-0.257,0.051-1.632-0.138-1.889-0.09 c-0.691-0.022-0.432,0.074-0.319,0.394c0.135,0.387,0.949,0.32,0.978,0.332c0.07,0.026,0.205,0.068,0.275,0.095 c0.777,0.289,3.021,0.101,3.833-0.068c0.381-0.078,0.748-0.206,1.113-0.335c0.339-0.117,0.684-0.24,0.961-0.464 c0.156-0.126,0.391-0.175,0.568-0.269C33.608,49.514,33.864,49.447,34.172,49.333"></path> <path fill="#FFFFFF" d="M65.559,49.374c-0.244-0.091-0.533-0.196-0.761-0.324c-0.269-0.148-0.529-0.129-0.831-0.192 c-0.584-0.122-1.598,0.012-2.159,0.215c-0.716,0.256-0.82,0.611-1.532,1.132c-0.094-0.158-0.3-0.535-0.19-0.683 c0.11-0.147,0.97-0.892,1.131-0.983c1.217-0.687,2.198-0.781,3.572-0.51c0.212,0.041,0.422,0.101,0.629,0.16 c0.842,0.241,1.714,0.398,2.525,0.723c1.341,0.532,2.626,0.887,4.042,1.037c0.26,0.027,1.049,0.148,1.306,0.197 c-0.259,0.169-0.139,0.338-0.397,0.529c-0.024,0.021-1.171,0.064-1.171,0.064s-0.224,0.104-0.294,0.13 c-0.776,0.29-1.56,0.077-2.374-0.092c-0.379-0.079-0.746-0.208-1.111-0.336c-0.339-0.118-0.682-0.241-0.96-0.464 c-0.157-0.126-0.331-0.193-0.509-0.288C66.183,49.538,65.866,49.489,65.559,49.374"></path> <path fill="#FFFFFF" d="M77.365,44.707c0.245,0.08,0.501,0.167,0.685,0.346c0.203-0.206,0.409-0.411,0.612-0.616 c-1.187-0.469-2.385-0.941-3.643-1.161c-0.786-0.138-1.589-0.176-2.387-0.144c-0.628,0.026-1.143,0.172-1.761,0.284 c-0.535,0.098-0.931,0.325-1.459,0.455c-0.573,0.14-1.268,0.418-1.821,0.615c-0.47,0.167-1.076,0.263-1.562,0.379 c-1.307,0.313-2.446,0.442-3.716,0.333c-0.052,0.209-0.256,0.468-0.235,0.683c1.219-0.018,2.334,0.056,3.553,0.038 c0.73-0.011,1.834-0.32,2.534-0.522c1.021-0.296,1.851-0.664,2.871-0.962c0.369-0.109,0.746-0.175,1.127-0.231 c0.399-0.059,0.713-0.055,1.116-0.073C74.651,44.067,76.059,44.281,77.365,44.707"></path> <path fill="#FFFFFF" d="M22.481,45.156c-0.246,0.081-1.188,0.613-1.373,0.792c-0.204-0.205-0.359-0.554-0.563-0.758 c1.188-0.471,3.022-1.245,4.282-1.466c0.786-0.138,1.587-0.177,2.385-0.144c0.63,0.026,1.256,0.095,1.876,0.207 c0.534,0.098,0.982,0.319,1.51,0.449c0.572,0.14,1.108,0.398,1.664,0.596c0.47,0.167,1.043,0.162,1.514,0.33 c1.196,0.426,2.488,0.593,3.756,0.483c0.053,0.21,0.07,0.428,0.051,0.645c-1.22-0.018-2.439-0.036-3.657-0.052 c-0.731-0.012-1.508-0.285-2.21-0.487c-1.02-0.296-1.787-0.648-2.807-0.948c-0.368-0.108-0.773-0.093-1.154-0.147 c-0.398-0.059-0.785-0.06-1.186-0.078C25.194,44.517,23.788,44.731,22.481,45.156"></path> <path fill="#FFFFFF" d="M90.213,31.944c-0.402,0.396-1.074,0.23-1.607,0.034c-0.8-0.297-1.127-0.619-1.916-0.941 c-0.388-0.158-1.003-0.581-1.342-0.826c-0.304-0.221-0.731-0.497-1.037-0.714c-1.606-1.14-3.441-1.567-5.355-1.886 c-1.983-0.332-3.993-0.614-6.005-0.562c-2.011,0.053-4.008,0.649-5.768,1.614c0.062,0.394,0.045,0.694,0.105,1.086 c2.046-1.097,4.384-1.655,6.71-1.598c2.114,0.051,4.483,0.378,6.514,0.965c1.48,0.429,2.673,1.107,3.973,1.932 c0.688,0.437,1.313,0.972,2.022,1.375c0.475,0.269,0.885,0.324,1.39,0.53c0.536,0.219,1.494,0.31,1.97-0.014 C90.26,32.668,90.146,32.414,90.213,31.944"></path> <path fill="#FFFFFF" d="M10.742,32.644c0.306,0.355-0.917-0.357-0.085-0.429c0.852-0.074,1.702-0.592,2.492-0.914 c0.389-0.158,0.735-0.446,1.074-0.691c0.304-0.22,0.664-0.285,0.943-0.534c1.439-1.287,3.448-1.703,5.359-2.023 c1.984-0.331,3.987-0.613,5.998-0.56c2.011,0.054,4.042,0.457,5.801,1.423c-0.06,0.392,0.039,0.78-0.021,1.173 c-1.895-1.276-4.541-1.65-6.867-1.594c-2.115,0.051-4.314,0.375-6.345,0.961c-1.481,0.427-2.717,1.165-4.015,1.99 c-0.688,0.438-1.416,1.003-2.127,1.404c-0.475,0.271-1.009,0.395-1.516,0.602c-0.533,0.218,0,0,0,0s-0.238,0.314-0.305-0.156"></path> <path fill="#F3C050" d="M61.218,44.868c-0.082,1.152,0.1,2.321,0.532,3.396c-0.475,0.408-0.985,0.779-1.521,1.108 c-0.242-0.629-0.126-1.33-0.186-2c-0.062-0.67-0.421-1.424-1.09-1.523c0.199-0.93,0.477-1.844,0.828-2.729 C60.106,43.808,60.602,44.414,61.218,44.868"></path> <path fill="#F3C050" d="M55.944,38.434c0.532,0.066,1.011,0.256,1.544,0.323c0.071,0.008,0.205-0.101,0.25-0.045 c0.044,0.057,0.168,0.095,0.166,0.167c-0.029,0.814,0.586,1.476,0.867,2.24c0.479,1.3-0.438,2.726-0.25,4.096 c-0.469-0.469-0.824-1.046-1.033-1.672c-0.621,1.239-2.318,1.496-2.462,1.764c-0.162-0.979-0.106-2.883,0-3.87 c0.018-0.167-0.188-0.973-0.263-1.122c-0.705-1.378-0.627-3.451-0.627-3.451S54.781,37.719,55.944,38.434"></path> <path fill="#F3C050" d="M38.513,44.942c0.082,1.152,0.12,2.191-0.484,3.271c0.546,0.258,0.983,0.531,1.521,0.859 c0.129-0.683-0.021-1.166,0.037-1.836c0.061-0.67,0.416-1.005,1.114-1.424c-0.2-0.93-0.259-1.814-0.61-2.7 C39.765,43.801,39.1,44.368,38.513,44.942"></path> <path fill="#F3C050" d="M43.862,38.322c-0.534,0.067-1.144,0.32-1.676,0.387c-0.071,0.009-0.307,0.055-0.35,0.111 c-0.046,0.056-0.088,0.361-0.086,0.433c0.027,0.813-0.511,1.175-0.792,1.94c-0.479,1.299,0.437,2.726,0.249,4.097 c0.469-0.47,0.824-1.048,1.033-1.673c0.144,0.269,0.898,1.135,2.553,1.691c-0.008-1.008,0.059-2.817-0.048-3.803 c-0.019-0.168,0.22-1.23,0.304-1.375c0.701-1.207,0.484-3.264,0.484-3.264S44.862,37.775,43.862,38.322"></path> <path fill="none" stroke="#262B64" stroke-width="0.25" stroke-miterlimit="10" d="M33.521,29.791 c0.083-0.139,0.313-0.125,0.418-0.002c0.105,0.122,0.107,0.304,0.062,0.459c-0.104,0.348-0.475,0.621-0.834,0.552 c-0.206-0.04-0.381-0.177-0.517-0.337c-0.291-0.344-0.431-0.829-0.294-1.257c0.137-0.428,0.58-0.76,1.031-0.708 c0.066-0.25,0.305-0.421,0.545-0.521c0.646-0.268,1.432-0.158,1.976,0.274c0.082,0.064,0.164,0.139,0.267,0.158 c0.193,0.04,0.377-0.146,0.398-0.338c0.021-0.196-0.078-0.383-0.199-0.538c-0.266-0.338-0.812-0.619-1.235-0.706"></path> <path fill="none" stroke="#262B64" stroke-width="0.25" stroke-miterlimit="10" d="M36.964,33.385 c0.832-1.007,1.08-2.755,0.584-3.958"></path> <path fill="#FFFFFF" d="M44.85,40.561l-0.694-0.238l-0.661,0.906l0.152,3.552l-0.878-0.544l-0.133-3.027 c0,0,0.512-0.752,0.629-1.031c0.164-0.391,0.42-1.642,0.42-1.642l1.489,1.07L44.85,40.561z"></path> <path fill="none" stroke="#262B64" stroke-width="0.25" stroke-miterlimit="10" d="M34.139,25.753 c-0.007-0.176,0.194-0.305,0.372-0.286s0.324,0.142,0.447,0.27c0.084,0.088,0.162,0.185,0.217,0.293 c0.191,0.378,0.029,0.879-0.324,1.116c-0.354,0.238-0.85,0.216-1.209-0.013c-0.365-0.231-0.592-0.663-0.572-1.091 c-0.414,0.051-0.842-0.3-0.84-0.713c0.002-0.413,0.473-0.763,0.866-0.622c0.032-0.283,0.276-0.496,0.536-0.617 c0.714-0.331,1.648-0.095,2.115,0.535"></path> <path fill="none" stroke="#262B64" stroke-width="0.25" stroke-miterlimit="10" d="M37.132,26.581 c0.416,0.222,0.686,0.652,1.099,0.873c0.148,0.079,0.309,0.129,0.459,0.198c0.565,0.26,0.97,0.802,1.132,1.398 c0.161,0.594-0.039,1.492-0.242,2.075"></path> <path fill="none" stroke="#262B64" stroke-width="0.25" stroke-miterlimit="10" d="M41.025,27.203 c0.845,0.574,1.172,2.151,0.858,3.117"></path> <path fill="none" stroke="#262B64" stroke-width="0.25" stroke-miterlimit="10" d="M30.887,21.296 c-0.026,0.039,0.071-0.084,0.104-0.117c0.198-0.194,0.549-0.116,0.75,0.075c0.202,0.191,0.304,0.459,0.445,0.697 c0.141,0.238,0.25,0.451,0.527,0.467"></path> <path fill="none" stroke="#262B64" stroke-width="0.25" stroke-miterlimit="10" d="M34.045,30.047 c0.503-0.281,1.187-0.109,1.57,0.318c0.386,0.427,0.512,1.412,0.397,1.972"></path> <path fill="none" stroke="#262B64" stroke-width="0.25" stroke-miterlimit="10" d="M34.718,24.018 c-0.186-0.261-0.547-0.563-0.857-0.476c-0.122,0.034-0.234,0.097-0.355,0.131c-0.473,0.133-1.016-0.281-1.005-0.768 c0.006-0.271,0.169-0.536,0.415-0.651c0.248-0.116,0.568-0.066,0.756,0.131"></path> <path fill="none" stroke="#262B64" stroke-width="0.25" stroke-miterlimit="10" d="M36.835,33.516 c-0.418-0.953-1.387-1.753-2.433-1.843c-0.508-0.044-1.025,0.042-1.525-0.053c-0.79-0.152-1.415-0.731-2.1-1.15 c-0.687-0.418-1.63-0.664-2.257-0.164c-0.133,0.104-0.243,0.238-0.391,0.321c-0.203,0.116-0.45,0.119-0.686,0.134 c-0.643,0.045-1.279,0.208-1.864,0.476c-0.126,0.058-0.257,0.126-0.326,0.245c-0.104,0.179-0.038,0.417-0.123,0.605 c-0.067,0.154-0.226,0.253-0.31,0.4c-0.184,0.323,0.053,0.729,0.343,0.964c0.313,0.255,0.737,0.423,1.122,0.299 c0.383-0.123,0.631-0.631,0.389-0.95c0.285-0.132,0.624-0.043,0.936-0.096c0.357-0.061,0.65-0.304,0.963-0.489 c0.311-0.185,0.713-0.313,1.029-0.136"></path> <path fill="none" stroke="#262B64" stroke-width="0.25" stroke-miterlimit="10" d="M31.69,32.644 c0.832,0.196,1.66,0.415,2.479,0.655c0.472,0.14,0.968,0.303,1.282,0.678c0.199,0.238,0.313,0.548,0.561,0.737"></path> <path fill="none" stroke="#262B64" stroke-width="0.25" stroke-miterlimit="10" d="M29.568,32.041 c-0.526-0.03-1.042,0.373-1.135,0.886c-0.045,0.248,0.011,0.525,0.192,0.699c0.184,0.175,0.506,0.208,0.689,0.033 c0.058-0.056,0.1-0.128,0.156-0.187c0.164-0.167,0.436-0.19,0.657-0.116c0.224,0.073,0.409,0.225,0.589,0.373 c0.334,0.274,0.666,0.549,0.998,0.823"></path> <path fill="none" stroke="#262B64" stroke-width="0.25" stroke-miterlimit="10" d="M32.796,34.463 c0.887,0.273,1.649,1.092,2.027,1.934"></path> <path fill="none" stroke="#262B64" stroke-width="0.25" stroke-miterlimit="10" d="M31.716,34.553 c-0.521-0.204-1.232-0.332-1.795-0.324c-0.532,0.009-1.152,0.187-1.334,0.684c-0.422-0.07-0.877,0.098-1.149,0.427 c-0.271,0.33-0.349,0.804-0.196,1.202c-0.383,0.076-0.504,0.612-0.306,0.947c0.196,0.336,0.579,0.511,0.938,0.666 c0.145,0.062,0.295,0.125,0.453,0.119c0.288-0.009,0.514-0.243,0.681-0.476c0.13-0.182,0.25-0.39,0.239-0.613 c-0.012-0.238-0.19-0.461-0.424-0.524c-0.232-0.064-0.501,0.034-0.636,0.232"></path> <path fill="none" stroke="#262B64" stroke-width="0.25" stroke-miterlimit="10" d="M28.896,36.683 c-0.064,0.02-0.042-0.101,0.016-0.137c0.566-0.361,1.317-0.415,1.932-0.141"></path> <path fill="none" stroke="#262B64" stroke-width="0.25" stroke-miterlimit="10" d="M32.774,36.648 c0.316,0.101,0.736,0.352,0.851,0.661"></path> <path fill="none" stroke="#262B64" stroke-width="0.25" stroke-miterlimit="10" d="M31.222,36.222 c-0.147-0.033-0.28,0.087-0.381,0.197c-0.119,0.128-0.238,0.258-0.301,0.419c-0.116,0.294,0.004,0.661,0.271,0.834 c0.267,0.173,0.654,0.133,0.881-0.09c0.057-0.058,0.107-0.127,0.18-0.165c0.232-0.122,0.477,0.137,0.609,0.362 c0.063,0.103,0.232,0.284,0.293,0.388"></path> <path fill="none" stroke="#262B64" stroke-width="0.25" stroke-miterlimit="10" d="M43.685,31.472 c-0.809-0.38-1.986-0.414-2.799-0.044c-0.813,0.37-1.445,1.109-1.68,1.964c-0.617,0.267-1.193,0.682-1.518,1.269 c-0.322,0.586-0.344,1.361,0.062,1.895s1.272,0.704,1.784,0.27c0.826,0.42,1.684,0.848,2.609,0.909 c0.928,0.062,1.952-0.339,2.332-1.179c0.344-0.76,0.02-1.754-0.709-2.172c-0.73-0.417-1.762-0.199-2.254,0.478 c-0.104,0.141-0.186,0.33-0.104,0.483c0.115,0.216,0.442,0.181,0.658,0.063s0.428-0.295,0.672-0.266 c0.426,0.049,0.501,0.704,0.195,1c-0.307,0.295-0.777,0.322-1.206,0.332c-0.438,0.009-0.903,0.012-1.276-0.213 c-0.734-0.441-0.722-1.588-0.168-2.235c0.557-0.647,1.451-0.894,2.301-1.004c0.285-0.037,0.581-0.061,0.854,0.024 c0.284,0.088,0.52,0.285,0.746,0.478c0.466,0.394,0.937,0.795,1.276,1.3c0.174,0.259,0.312,0.553,0.338,0.863 c0.035,0.404-0.122,0.802-0.332,1.151c-0.614,1.024-1.723,1.743-2.916,1.892s-2.447-0.275-3.299-1.116 c-1.113,0.372-2.271-0.355-3.188-1.081c-0.183-0.143-0.373-0.302-0.443-0.522c-0.074-0.227-0.005-0.475,0.08-0.699 c0.368-0.976,1.035-1.84,1.887-2.45c0.162-0.115,0.328-0.222,0.479-0.349c0.18-0.152,0.331-0.334,0.493-0.504 c1.256-1.325,3.174-2.003,4.992-1.767"></path> <path fill="none" stroke="#262B64" stroke-width="0.25" stroke-miterlimit="10" d="M49.869,27.666 c-0.254,0.258-1.21,1.518-1.276,1.873c-0.021,0.115-0.021,0.232-0.02,0.348c0.008,0.704,0.036,1.406,0.084,2.106"></path> <path fill="none" stroke="#262B64" stroke-width="0.25" stroke-miterlimit="10" d="M35.681,36.138 c-1.051,0.21-2.194,0.991-2.561,1.988c-1.145,0.07-2.223,0.803-2.701,1.836c-0.288,0.623-0.357,1.375-0.043,1.985 c0.177,0.342,0.459,0.615,0.734,0.885c0.256,0.249,0.531,0.508,0.883,0.583c0.35,0.075,0.967,0.054,1-0.299 c0.612,0.97,1.621,1.331,2.775,1.281c1.152-0.049,2.244-0.646,3.007-1.506c0.522-0.588,0.912-1.334,0.901-2.118 c-0.012-0.785-0.497-1.587-1.256-1.812c-0.26-0.077-0.535-0.084-0.805-0.065c-1.053,0.075-2.068,0.567-2.773,1.345 c-0.131,0.144-0.257,0.313-0.262,0.508c-0.004,0.213,0.139,0.398,0.275,0.564c0.314,0.386,0.656,0.79,1.129,0.953 c0.473,0.165,1.109-0.027,1.234-0.508c-0.061-0.439-0.97-0.289-1.017-0.729c-0.009-0.08,0.02-0.16,0.056-0.232 c0.175-0.346,0.572-0.569,0.963-0.541c0.39,0.028,0.75,0.306,0.873,0.674c0.158,0.473-0.069,0.996-0.394,1.379 c-0.528,0.622-1.327,1.007-2.147,1.034c-0.818,0.027-1.645-0.305-2.213-0.891c-0.75,0.23-1.614-0.254-1.893-0.979 c-0.281-0.726-0.018-1.595,0.551-2.131c0.568-0.535,1.393-0.757,2.175-0.695c0.363-0.989,1.616-1.757,2.661-1.563"></path> <path fill="none" stroke="#262B64" stroke-width="0.25" stroke-miterlimit="10" d="M41.837,38.758 c-0.066,0.504-0.216,1.119-0.443,1.574c-0.208,0.417-0.485,0.813-0.551,1.273c-0.033,0.223-0.014,0.451,0.009,0.675 c0.103,1.06,0.216,1.927,0.405,2.974"></path> <path fill="none" stroke="#262B64" stroke-width="0.25" stroke-miterlimit="10" d="M40.701,38.52l-0.917,2.597 c-0.046,0.131-0.093,0.264-0.104,0.402c-0.014,0.201,0.052,0.4,0.113,0.594c0.395,1.229,0.684,2.49,0.865,3.767"></path> <path fill="none" stroke="#262B64" stroke-width="0.25" stroke-miterlimit="10" d="M38.042,43.566 c-0.067,0.333-0.24,0.643-0.489,0.877c-0.052,0.048-0.108,0.096-0.137,0.162c-0.045,0.106,0,0.227,0.039,0.335 c0.356,0.991,0.269,2.13-0.236,3.057"></path> <path fill="none" stroke="#262B64" stroke-width="0.25" stroke-miterlimit="10" d="M39.979,42.72 c0.091,0.396-0.106,0.818-0.357,1.141c-0.25,0.322-0.588,0.565-0.923,0.801c-0.056,0.04-0.113,0.08-0.144,0.14 c-0.033,0.063-0.033,0.138-0.032,0.208c0.006,0.364,0.011,0.728,0.017,1.091c0.005,0.302,0.009,0.604-0.041,0.9 c-0.076,0.453-0.277,0.878-0.52,1.27"></path> <path fill="none" stroke="#262B64" stroke-width="0.25" stroke-miterlimit="10" d="M39.542,49.483 c0.045-0.828,0.09-1.889,0.135-2.485c0.008-0.107,0.016-0.216,0.056-0.315c0.083-0.21,0.286-0.343,0.47-0.475 c0.919-0.652,1.647-1.561,2.081-2.594c0.249,0.565,0.792,0.953,1.354,1.218c0.563,0.266,1.168,0.441,1.714,0.739 c0.108,0.06,0.22,0.126,0.284,0.232c0.066,0.105,0.078,0.236,0.094,0.359c0.085,0.794-0.004,0.944,0.24,1.476"></path> <path fill="none" stroke="#262B64" stroke-width="0.25" stroke-miterlimit="10" d="M40.675,49.025 c0.036-0.409,0.008-0.748,0.029-1.305c0.004-0.109,0.007-0.22,0.045-0.322c0.062-0.168,0.206-0.289,0.34-0.408 c0.514-0.457,0.944-1.002,1.271-1.603c0.525,0.284,1.051,0.566,1.578,0.85c0.109,0.059,0.223,0.12,0.297,0.218 c0.07,0.091,0.235,0.992,0.32,1.475"></path> <path fill="none" stroke="#262B64" stroke-width="0.25" stroke-miterlimit="10" d="M66.217,29.79 c-0.084-0.139-0.311-0.125-0.417-0.002c-0.105,0.123-0.109,0.305-0.062,0.46c0.104,0.347,0.473,0.621,0.834,0.552 c0.205-0.04,0.381-0.177,0.517-0.337c0.291-0.344,0.431-0.83,0.293-1.258c-0.138-0.428-0.581-0.759-1.032-0.708 c-0.065-0.251-0.302-0.421-0.546-0.522c-0.643-0.266-1.431-0.158-1.976,0.275c-0.08,0.063-0.161,0.138-0.266,0.158 c-0.192,0.039-0.376-0.146-0.398-0.339c-0.02-0.195,0.08-0.383,0.2-0.537c0.267-0.338,0.812-0.62,1.234-0.706"></path> <path fill="none" stroke="#262B64" stroke-width="0.25" stroke-miterlimit="10" d="M62.957,33.295 c-0.833-1.007-1.08-2.665-0.582-3.87"></path> <path fill="none" stroke="#262B64" stroke-width="0.25" stroke-miterlimit="10" d="M65.599,25.753 c0.008-0.176-0.193-0.306-0.371-0.287c-0.178,0.02-0.326,0.142-0.447,0.271c-0.083,0.088-0.163,0.184-0.218,0.292 c-0.189,0.379-0.027,0.88,0.326,1.116c0.353,0.238,0.85,0.217,1.209-0.012c0.364-0.231,0.59-0.664,0.572-1.091 c0.413,0.05,0.841-0.301,0.837-0.714c-0.002-0.413-0.472-0.762-0.863-0.622c-0.034-0.282-0.277-0.496-0.536-0.616 c-0.714-0.332-1.648-0.096-2.116,0.534"></path> <path fill="none" stroke="#262B64" stroke-width="0.25" stroke-miterlimit="10" d="M62.605,26.581 c-0.414,0.221-0.684,0.651-1.1,0.873c-0.146,0.079-0.307,0.128-0.459,0.197c-0.562,0.26-0.968,0.803-1.129,1.397 c-0.163,0.595,0.038,1.494,0.242,2.076"></path> <path fill="none" stroke="#262B64" stroke-width="0.25" stroke-miterlimit="10" d="M58.714,27.202 c-0.847,0.575-1.174,2.152-0.858,3.117"></path> <path fill="none" stroke="#262B64" stroke-width="0.25" stroke-miterlimit="10" d="M68.902,21.265 c0.027,0.038-0.122-0.053-0.156-0.086c-0.196-0.194-0.548-0.116-0.749,0.076c-0.202,0.19-0.305,0.459-0.445,0.697 c-0.141,0.237-0.249,0.451-0.528,0.466"></path> <path fill="none" stroke="#262B64" stroke-width="0.25" stroke-miterlimit="10" d="M65.694,30.047 c-0.506-0.282-1.188-0.109-1.572,0.317c-0.384,0.428-0.511,1.412-0.395,1.972"></path> <path fill="none" stroke="#262B64" stroke-width="0.25" stroke-miterlimit="10" d="M65.02,24.018 c0.188-0.261,0.547-0.564,0.859-0.477c0.12,0.034,0.234,0.097,0.355,0.13c0.471,0.134,1.014-0.281,1.003-0.768 c-0.006-0.271-0.166-0.536-0.414-0.652c-0.247-0.116-0.568-0.065-0.757,0.131"></path> <path fill="none" stroke="#262B64" stroke-width="0.25" stroke-miterlimit="10" d="M62.905,33.516 c0.414-0.954,1.387-1.754,2.431-1.844c0.508-0.044,1.024,0.043,1.524-0.053c0.794-0.151,1.415-0.73,2.102-1.149 c0.685-0.419,1.63-0.665,2.257-0.165c0.131,0.104,0.241,0.238,0.389,0.321c0.203,0.116,0.451,0.12,0.688,0.135 c0.645,0.044,1.277,0.207,1.865,0.475c0.124,0.058,0.254,0.126,0.324,0.246c0.104,0.179,0.038,0.415,0.121,0.605 c0.071,0.153,0.228,0.252,0.312,0.399c0.184,0.323-0.054,0.73-0.343,0.965c-0.313,0.254-0.736,0.422-1.12,0.299 c-0.384-0.124-0.633-0.632-0.39-0.95c-0.286-0.133-0.625-0.043-0.936-0.096c-0.356-0.062-0.65-0.304-0.963-0.49 c-0.313-0.185-0.714-0.312-1.031-0.136"></path> <path fill="none" stroke="#262B64" stroke-width="0.25" stroke-miterlimit="10" d="M68.048,32.643 c-0.833,0.196-1.659,0.414-2.479,0.656c-0.471,0.139-0.968,0.302-1.281,0.678c-0.199,0.237-0.313,0.548-0.56,0.737"></path> <path fill="none" stroke="#262B64" stroke-width="0.25" stroke-miterlimit="10" d="M70.171,32.04 c0.525-0.03,1.042,0.374,1.134,0.886c0.043,0.249-0.011,0.525-0.192,0.7c-0.184,0.175-0.506,0.208-0.688,0.033 c-0.061-0.057-0.102-0.128-0.158-0.188c-0.163-0.167-0.436-0.189-0.658-0.116c-0.222,0.073-0.407,0.226-0.589,0.374 c-0.333,0.273-0.663,0.548-0.998,0.822"></path> <path fill="none" stroke="#262B64" stroke-width="0.25" stroke-miterlimit="10" d="M66.943,34.462 c-0.889,0.273-1.65,1.092-2.028,1.934"></path> <path fill="none" stroke="#262B64" stroke-width="0.25" stroke-miterlimit="10" d="M68.021,34.552 c0.523-0.203,1.233-0.332,1.796-0.323c0.532,0.008,1.154,0.186,1.334,0.682c0.422-0.07,0.877,0.1,1.149,0.428 c0.272,0.33,0.349,0.805,0.196,1.203c0.384,0.075,0.504,0.612,0.305,0.947c-0.197,0.335-0.577,0.51-0.937,0.664 c-0.146,0.063-0.296,0.126-0.453,0.12c-0.29-0.009-0.515-0.242-0.681-0.476c-0.132-0.182-0.252-0.39-0.238-0.612 c0.012-0.239,0.189-0.461,0.422-0.525c0.232-0.064,0.501,0.035,0.637,0.233"></path> <path fill="none" stroke="#262B64" stroke-width="0.25" stroke-miterlimit="10" d="M70.842,36.682 c0.065,0.021,0.043-0.101-0.015-0.137c-0.566-0.361-1.318-0.414-1.931-0.141"></path> <path fill="none" stroke="#262B64" stroke-width="0.25" stroke-miterlimit="10" d="M66.963,36.648 c-0.317,0.101-0.733,0.351-0.85,0.661"></path> <path fill="none" stroke="#262B64" stroke-width="0.25" stroke-miterlimit="10" d="M68.518,36.222 c0.145-0.034,0.278,0.086,0.381,0.197c0.117,0.127,0.237,0.257,0.301,0.418c0.115,0.295-0.004,0.662-0.271,0.835 c-0.268,0.172-0.656,0.133-0.882-0.091c-0.058-0.058-0.107-0.127-0.18-0.165c-0.233-0.121-0.476,0.138-0.609,0.362 c-0.062,0.104-0.231,0.285-0.294,0.388"></path> <path fill="none" stroke="#262B64" stroke-width="0.25" stroke-miterlimit="10" d="M56.054,31.471 c0.808-0.38,1.987-0.413,2.799-0.043c0.813,0.369,1.445,1.108,1.678,1.963c0.619,0.268,1.196,0.683,1.519,1.269 c0.324,0.586,0.345,1.362-0.06,1.896c-0.406,0.534-1.273,0.704-1.786,0.27c-0.826,0.42-1.684,0.848-2.609,0.908 c-0.928,0.062-1.951-0.339-2.33-1.178c-0.346-0.761-0.021-1.755,0.708-2.173c0.73-0.417,1.763-0.198,2.255,0.479 c0.104,0.141,0.185,0.329,0.102,0.482c-0.114,0.216-0.441,0.182-0.656,0.063c-0.215-0.118-0.43-0.294-0.672-0.266 c-0.427,0.05-0.504,0.705-0.196,1c0.306,0.296,0.778,0.322,1.204,0.332c0.44,0.009,0.904,0.012,1.28-0.212 c0.731-0.441,0.72-1.588,0.165-2.235c-0.554-0.648-1.45-0.894-2.3-1.004c-0.286-0.037-0.58-0.062-0.854,0.023 c-0.286,0.088-0.521,0.285-0.747,0.478c-0.465,0.395-0.936,0.796-1.275,1.3c-0.175,0.26-0.313,0.552-0.341,0.864 c-0.033,0.404,0.124,0.802,0.333,1.151c0.615,1.023,1.725,1.742,2.917,1.891c1.193,0.149,2.445-0.275,3.299-1.116 c1.112,0.373,2.27-0.354,3.188-1.08c0.182-0.144,0.373-0.302,0.443-0.522c0.073-0.227,0.004-0.476-0.08-0.7 c-0.369-0.976-1.032-1.84-1.888-2.45c-0.161-0.115-0.329-0.222-0.478-0.349c-0.181-0.152-0.332-0.333-0.494-0.504 c-1.257-1.324-3.174-2.002-4.993-1.767"></path> <path fill="none" stroke="#262B64" stroke-width="0.25" stroke-miterlimit="10" d="M49.869,27.666 c0.255,0.258,1.211,1.518,1.276,1.872c0.022,0.115,0.022,0.233,0.021,0.349c-0.009,0.703-0.036,1.405-0.084,2.106"></path> <path fill="none" stroke="#262B64" stroke-width="0.25" stroke-miterlimit="10" d="M64.059,36.138c1.051,0.21,2.191,0.99,2.56,1.988 c1.145,0.069,2.224,0.802,2.7,1.836c0.29,0.622,0.357,1.374,0.043,1.984c-0.177,0.342-0.457,0.616-0.732,0.885 c-0.257,0.249-0.532,0.508-0.882,0.583c-0.351,0.075-0.968,0.055-1.001-0.298c-0.613,0.971-1.623,1.332-2.775,1.281 c-1.153-0.049-2.247-0.646-3.008-1.505c-0.522-0.589-0.91-1.334-0.9-2.118c0.009-0.785,0.496-1.588,1.255-1.812 c0.259-0.077,0.536-0.085,0.805-0.065c1.052,0.074,2.069,0.567,2.773,1.345c0.13,0.145,0.259,0.313,0.263,0.508 c0.003,0.213-0.141,0.398-0.275,0.565c-0.316,0.385-0.656,0.789-1.131,0.953c-0.472,0.164-1.108-0.028-1.234-0.509 c0.06-0.438,0.97-0.289,1.019-0.729c0.008-0.08-0.021-0.159-0.057-0.231c-0.176-0.347-0.572-0.57-0.962-0.542 c-0.392,0.028-0.753,0.306-0.873,0.674c-0.158,0.473,0.067,0.997,0.393,1.379c0.527,0.622,1.329,1.008,2.148,1.035 c0.818,0.027,1.644-0.305,2.211-0.891c0.75,0.23,1.616-0.254,1.896-0.979c0.278-0.726,0.016-1.595-0.553-2.131 c-0.569-0.535-1.394-0.757-2.175-0.695c-0.363-0.989-1.616-1.758-2.659-1.563"></path> <path fill="none" stroke="#262B64" stroke-width="0.25" stroke-miterlimit="10" d="M54.947,45.307 c0.021-1.17-0.027-2.494-0.004-3.665c0.006-0.3,0.012-0.603-0.051-0.897c-0.076-0.372-0.256-0.714-0.395-1.067 c-0.276-0.699-0.401-1.456-0.363-2.206c0.012-0.284,0.048-0.581-0.059-0.845c-0.076-0.189-0.217-0.344-0.337-0.51 c-0.429-0.59-0.596-1.321-0.828-2.011c-0.23-0.69-0.572-1.399-1.205-1.768c-0.414-0.24-0.921-0.374-1.115-0.808 c-0.018,0-0.702-0.875-0.722-0.875c-0.019,0-0.704,0.875-0.723,0.875c-0.193,0.436-0.7,0.569-1.114,0.809 c-0.633,0.369-0.974,1.078-1.205,1.767c-0.232,0.69-0.399,1.421-0.828,2.011c-0.12,0.166-0.262,0.321-0.338,0.511 c-0.105,0.264-0.07,0.56-0.057,0.845c0.037,0.75-0.089,1.507-0.365,2.205c-0.139,0.354-0.316,0.695-0.395,1.067 c-0.061,0.295-0.055,0.598-0.049,0.898c0.021,1.17-0.025,2.495-0.002,3.665"></path> <path fill="none" stroke="#262B64" stroke-width="0.25" stroke-miterlimit="10" d="M54.103,45.803 c0.014-0.686-0.131-1.571-0.118-2.256c0.022-1.054,0.042-2.122-0.204-3.147c-0.131-0.543-0.336-1.069-0.424-1.621 c-0.063-0.394-0.064-0.798-0.002-1.193c0.023-0.161,0.058-0.326,0.025-0.485c-0.039-0.198-0.177-0.359-0.302-0.517 c-0.508-0.639-0.902-1.367-1.159-2.139c-0.083-0.243-0.151-0.493-0.28-0.714c-0.246-0.425-1.351-1.307-1.77-1.57 c-0.418,0.263-1.524,1.145-1.771,1.571c-0.128,0.221-0.196,0.471-0.277,0.714c-0.258,0.772-0.652,1.5-1.16,2.138 c-0.125,0.159-0.262,0.32-0.303,0.517c-0.033,0.159,0.002,0.324,0.026,0.486c0.06,0.394,0.06,0.798-0.003,1.193 c-0.088,0.552-0.292,1.077-0.423,1.621c-0.247,1.024-0.228,2.092-0.206,3.146c0.014,0.685-0.131,1.571-0.117,2.256"></path> <path fill="none" stroke="#262B64" stroke-width="0.25" stroke-miterlimit="10" d="M57.904,38.757 c0.063,0.504,0.212,1.12,0.439,1.574c0.208,0.417,0.485,0.814,0.554,1.273c0.03,0.224,0.011,0.451-0.01,0.675 c-0.103,1.06-0.217,1.928-0.406,2.975"></path> <path fill="none" stroke="#262B64" stroke-width="0.25" stroke-miterlimit="10" d="M59.036,38.52l0.918,2.597 c0.046,0.13,0.095,0.264,0.104,0.401c0.013,0.202-0.053,0.4-0.114,0.594c-0.394,1.229-0.683,2.491-0.864,3.768"></path> <path fill="none" stroke="#262B64" stroke-width="0.25" stroke-miterlimit="10" d="M61.695,43.565 c0.067,0.333,0.242,0.644,0.491,0.876c0.052,0.049,0.108,0.097,0.136,0.162c0.045,0.107,0,0.228-0.038,0.336 c-0.358,0.991-0.27,2.129,0.235,3.057"></path> <path fill="none" stroke="#262B64" stroke-width="0.25" stroke-miterlimit="10" d="M59.759,42.72 c-0.092,0.396,0.107,0.818,0.357,1.14c0.249,0.322,0.588,0.565,0.924,0.801c0.056,0.039,0.111,0.08,0.143,0.14 c0.035,0.063,0.035,0.138,0.033,0.208c-0.006,0.364-0.012,0.729-0.019,1.091c-0.004,0.302-0.009,0.604,0.041,0.901 c0.076,0.453,0.278,0.877,0.521,1.27"></path> <path fill="#FFFFFF" d="M49.183,36.978c-0.164-0.053-0.363-0.099-0.492,0.015c-0.066,0.059-0.097,0.147-0.123,0.232l-0.639,1.956 c-0.049,0.152-0.1,0.304-0.117,0.463c-0.02,0.175,0.003,0.353,0.029,0.527c0.166,1.077,0.546,2.11,0.77,3.176 c0.021,0.105,0.042,0.216,0.005,0.317c-0.06,0.162-0.239,0.241-0.351,0.373c-0.072,0.086-0.113,0.192-0.153,0.297l-1.177,3.082 l1.215-0.065c0.14-0.779,0.336-1.547,0.584-2.298c0.098-0.29,0.205-0.583,0.398-0.82c0.191-0.236,0.487-0.411,0.791-0.385 c-0.051-0.333-0.053-0.673-0.002-1.006c-0.113,0.064-0.266,0.009-0.35-0.089c-0.086-0.099-0.122-0.229-0.154-0.355l-0.541-2.042 c-0.048-0.184-0.098-0.37-0.1-0.559c-0.008-0.495,0.289-0.935,0.574-1.338c0.182-0.257,0.363-0.514,0.545-0.771 c0.072-0.102,0.146-0.227,0.104-0.344c-0.04-0.108-0.165-0.156-0.276-0.192C49.543,37.093,49.363,37.036,49.183,36.978"></path> <path fill="#FFFFFF" d="M49.354,37.596c-0.199-0.002-0.363-0.147-0.509-0.285c-0.112-0.105-0.232-0.232-0.225-0.386 c0.01-0.172,0.171-0.289,0.317-0.379c0.268-0.166,0.549-0.335,0.862-0.354c0.38-0.023,0.731,0.178,1.06,0.374 c0.067,0.04,0.136,0.082,0.184,0.145c0.063,0.082,0.081,0.187,0.1,0.287c0.124,0.69,0.328,1.365,0.608,2.008 c0.054,0.123,0.11,0.247,0.132,0.379c0.026,0.169-0.006,0.34-0.04,0.509l-0.658,3.378c-0.03,0.158-0.056,0.34,0.046,0.465 c0.046,0.055,0.109,0.09,0.159,0.14c0.068,0.066,0.106,0.151,0.145,0.235c0.477,1.06,0.875,2.156,1.195,3.274 c-0.318,0.021-0.639-0.002-0.95-0.065c-0.206-0.611-0.409-1.222-0.614-1.832c-0.122-0.357-0.245-0.721-0.474-1.021 c-0.25-0.327-0.623-0.56-1.028-0.642c-0.045-0.296-0.06-0.597-0.041-0.896c0.134-0.063,0.3,0.023,0.438-0.031 c0.127-0.05,0.182-0.197,0.223-0.328c0.121-0.398,0.242-0.796,0.364-1.196c0.169-0.556,0.342-1.132,0.277-1.712 c-0.083-0.733-0.532-1.368-0.983-1.954c-0.036-0.048-0.074-0.098-0.127-0.125C49.678,37.509,49.511,37.597,49.354,37.596"></path> <path fill="none" stroke="#262B64" stroke-width="0.25" stroke-miterlimit="10" d="M49.869,37.521 c0.073,0.257,0.356,0.668,0.493,0.897c0.169,0.277,0.385,0.531,0.498,0.835c0.189,0.511,0.063,1.079-0.065,1.609 c-0.21,0.867-0.388,1.146-0.599,2.013h-0.654c-0.211-0.867-0.388-1.146-0.598-2.013c-0.129-0.531-0.256-1.099-0.066-1.61 c0.113-0.304,0.329-0.558,0.496-0.835C49.513,38.191,49.796,37.778,49.869,37.521"></path> <path fill="none" stroke="#262B64" stroke-width="0.25" stroke-miterlimit="10" d="M60.22,49.372 c-0.058-0.878-0.12-1.88-0.157-2.376c-0.008-0.106-0.016-0.215-0.057-0.314c-0.084-0.21-0.285-0.344-0.471-0.475 c-0.917-0.652-1.646-1.561-2.078-2.593c-0.252,0.565-0.793,0.952-1.356,1.218c-0.563,0.266-1.169,0.441-1.715,0.738 c-0.108,0.06-0.218,0.127-0.283,0.233c-0.067,0.105-0.08,0.235-0.092,0.359c-0.08,0.733-0.082,0.929-0.301,1.395"></path> <path fill="none" stroke="#262B64" stroke-width="0.25" stroke-miterlimit="10" d="M59.028,49.037 c-0.004-0.428,0.023-0.855,0.006-1.317c-0.004-0.108-0.006-0.22-0.044-0.322c-0.063-0.167-0.207-0.288-0.341-0.407 c-0.513-0.457-0.944-1.002-1.271-1.603c-0.527,0.283-1.053,0.566-1.579,0.85c-0.109,0.058-0.223,0.119-0.299,0.218 c-0.063,0.081-0.222,0.886-0.325,1.438"></path> <path fill="none" stroke="#262B64" stroke-width="0.25" stroke-miterlimit="10" d="M48.103,47.33 c0.344-0.93,0.168-0.487,0.469-1.609c0.207-0.771,0.507-1.681,1.284-1.883l0.026-0.001c0.778,0.202,1.079,1.113,1.286,1.883 c0.289,1.082,0.283,0.849,0.604,1.671"></path> <path fill="none" stroke="#262B64" stroke-width="0.25" stroke-miterlimit="10" d="M52.777,47.49 c-0.484-1.385-0.493-1.393-1.053-3.003c-0.066-0.184-0.132-0.373-0.249-0.532c-0.103-0.138-0.238-0.246-0.371-0.353l0.018-0.067 c0.211-1.244,0.589-2.509,0.801-3.753c0.013-0.083,0.026-0.167,0.019-0.25c-0.012-0.112-0.065-0.215-0.115-0.317 c-0.315-0.648-0.532-1.342-0.643-2.054c-0.018-0.122-0.036-0.249-0.102-0.352c-0.046-0.072-0.112-0.128-0.178-0.183 c-0.221-0.188-0.813-0.375-1.035-0.563c-0.222,0.189-0.813,0.376-1.035,0.564c-0.065,0.055-0.132,0.111-0.178,0.183 c-0.065,0.104-0.083,0.23-0.103,0.352c-0.109,0.711-0.327,1.405-0.643,2.053c-0.049,0.102-0.102,0.206-0.113,0.317 c-0.01,0.084,0.004,0.169,0.019,0.251c0.212,1.243,0.605,2.577,0.817,3.82c-0.135,0.107-0.27,0.215-0.371,0.352 c-0.117,0.159-0.184,0.348-0.248,0.533c-0.529,1.513-0.555,1.616-1.039,3.006"></path> <path fill="none" stroke="#262B64" stroke-width="0.25" stroke-miterlimit="10" d="M27.642,50.05 c3.506-0.221,7.032-2.74,9.577-2.054c1.482,0.4,2.05,0.843,2.342,1.12"></path> <path fill="none" stroke="#262B64" stroke-width="0.25" stroke-miterlimit="10" d="M28.456,50.897 c1.416-0.061,2.996-0.346,3.486-0.589c0.603-0.302,1.217-0.58,1.84-0.837c0.678-0.277,1.373-0.531,2.1-0.63 c0.727-0.101,1.492-0.039,2.146,0.288c0.403,0.201,0.68,0.363,0.919,0.608"></path> <path fill="none" stroke="#262B64" stroke-width="0.25" stroke-miterlimit="10" d="M72.279,49.935 c-3.291,0.104-6.78-2.743-9.76-1.938c-1.481,0.4-1.987,1.093-2.277,1.372"></path> <path fill="none" stroke="#262B64" stroke-width="0.25" stroke-miterlimit="10" d="M71.447,50.882 c-1.122,0.294-2.928-0.214-3.65-0.573c-0.602-0.302-1.217-0.58-1.842-0.837c-0.676-0.277-1.372-0.532-2.099-0.629 c-0.726-0.101-1.489-0.039-2.145,0.287c-0.35,0.174-0.631,0.356-0.874,0.585"></path> <path fill="none" stroke="#262B64" stroke-width="0.25" stroke-miterlimit="10" d="M37.644,45.631 c-1.756-0.019-3.523-0.209-5.196-0.739c-0.837-0.264-1.646-0.611-2.485-0.863c-2.339-0.704-5.182-0.49-7.581,0.37"></path> <path fill="none" stroke="#262B64" stroke-width="0.25" stroke-miterlimit="10" d="M23.019,45.103 c2.375-0.615,5.072-0.637,7.298,0.127c0.722,0.248,1.422,0.562,2.155,0.769c1.593,0.446,3.459,0.377,5.111,0.292"></path> <path fill="none" stroke="#262B64" stroke-width="0.25" stroke-miterlimit="10" d="M62.276,45.261 c1.758-0.019,3.523-0.208,5.198-0.738c0.835-0.264,1.643-0.612,2.484-0.864c2.729-0.82,5.329-0.792,7.855,0.42"></path> <path fill="none" stroke="#262B64" stroke-width="0.25" stroke-miterlimit="10" d="M77.2,44.66 c-2.561-0.934-4.968-0.702-7.596,0.199c-0.722,0.248-1.42,0.563-2.157,0.77c-1.591,0.446-3.715,0.336-5.368,0.251"></path> <path fill="none" stroke="#262B64" stroke-width="0.25" stroke-miterlimit="10" d="M10.94,32.116 c0.723-0.137,1.418-0.362,1.932-0.653c1.103-0.623,2.096-1.423,3.208-2.025c2.444-1.321,5.306-1.603,8.079-1.86 c1.747-0.162,3.549-0.318,5.224,0.198c1.007,0.31,2.073,0.887,3.079,1.204"></path> <path fill="none" stroke="#262B64" stroke-width="0.25" stroke-miterlimit="10" d="M12.007,33.284 c1.855-0.8,3.496-2.358,5.352-3.218c1.223-0.568,2.565-0.828,3.897-1.058c1.866-0.321,3.757-0.594,5.651-0.502 c1.892,0.093,3.996,0.62,5.555,1.687"></path> <path fill="none" stroke="#262B64" stroke-width="0.25" stroke-miterlimit="10" d="M88.997,32.079 c-0.78-0.097-1.388-0.521-2.213-0.988c-1.102-0.623-2.095-1.424-3.207-2.025c-2.444-1.32-5.306-1.603-8.079-1.86 c-1.748-0.162-3.549-0.32-5.224,0.199c-1.021,0.316-2.279,1.012-3.237,1.308"></path> <path fill="none" stroke="#262B64" stroke-width="0.25" stroke-miterlimit="10" d="M88.074,33.015 c-2.237-0.478-3.545-2.287-5.774-3.321c-1.224-0.567-2.565-0.828-3.897-1.058c-1.867-0.321-3.759-0.593-5.651-0.501 c-1.894,0.093-3.805,0.571-5.362,1.639"></path> <path fill="#FFFFFF" d="M39.942,20.598c0.158,0.016,0.463,0.178,0.533,0.318c0.25,0.499,0.926,0.85,1.426,1.103 c-0.211,0.003-0.899,0.038-1.054,0.181c-0.155,0.143-0.272,0.329-0.163,0.509c0.219,0.358,1.192,0.558,1.367,0.938 c0.43,0.939,1.092,0.455,1.092,0.455s-0.102,1.019,0.383,1.63c0.25,0.316-0.332,1.579-0.332,1.579s-0.593,1.013-0.179,1.272 c0.612,0.382,0.205,0.229,1.198-0.153c0.559-1.298,1.094-3.003,1.502-4.2c0.153-0.453,1.518-1.305,1.489-1.783 c-0.032-0.557-0.128-1.107-0.313-1.632c-0.346-0.977-1.043-1.863-2.003-2.271c-0.264-0.112-0.548-0.191-0.771-0.369 c-0.449-0.359-0.387-1.042-0.519-1.598c-0.365-1.541-1.692-2.684-3.177-3.269c-0.391-0.154-0.77-0.406-1.108-0.651 c-0.339-0.245-0.679-0.639-1.081-0.525c-0.151,0.042-0.486,0.266-0.634,0.318c-0.312,0.109-0.429-0.177-0.729-0.312 c-0.571-0.255-1.244-0.384-1.82-0.142c-0.576,0.243-0.714,1.051-0.439,1.607c0.291,0.589,1.273,0.467,1.621-0.089 c0.437,0.516,0.968,0.657,1.645,0.604c0.678-0.054,1.745,0.05,2.133,0.602c-0.332-0.024-0.918-0.071-1.221,0.068 c-0.302,0.139-0.559,0.327-0.497,0.651c0.092,0.486,0.673,0.733,1.169,0.777c0.498,0.043,1.401,0.164,1.492,0.65 c-0.35,0.018-0.963,0.034-1.193,0.295c-0.229,0.261-0.202,0.914,0.102,1.086c0.141,0.081,0.354,0.005,0.502,0.065 c0.248,0.102,0.717,0.493,0.685,0.756c-0.315-0.106-0.942-0.341-1.26-0.24c-0.317,0.103-0.665,0.388-0.549,0.698 c-0.434-0.184-0.911,0.177-1.04,0.625c-0.129,0.449,0.088,1.118,0.447,1.422c0.134,0.113,0.828,0.297,0.828,0.297 s-0.133-0.313-0.041-0.464c0.098-0.162,0.139-0.382,0.15-0.57C39.595,20.65,39.753,20.58,39.942,20.598"></path> <path fill="none" stroke="#262B64" stroke-width="0.25" stroke-miterlimit="10" d="M47.22,22.445 c-0.013-0.135-0.029-0.268-0.051-0.403c-0.209-1.376-0.967-2.718-2.193-3.399c-0.43-0.24-0.949-0.436-1.146-0.885 c-0.084-0.191-0.095-0.403-0.119-0.611c-0.151-1.247-0.873-2.415-1.925-3.117c-0.87-0.58-1.947-0.855-2.697-1.581 c-0.165-0.16-0.337-0.352-0.565-0.369c-0.314-0.024-0.552,0.287-0.857,0.359c-0.426,0.101-0.798-0.266-1.184-0.47 c-0.59-0.313-1.412-0.205-1.822,0.321c-0.408,0.526-0.24,1.425,0.375,1.689c0.617,0.264,1.439-0.351,1.273-0.995"></path> <path fill="none" stroke="#262B64" stroke-width="0.25" stroke-miterlimit="10" d="M42.336,16.946 c-0.198,0.625,0.052,1.318,0.452,1.841c0.4,0.523,0.938,0.924,1.419,1.376c0.853,0.8,1.544,1.799,1.825,2.927 c0.049,0.198,0.082,0.491,0.104,0.695"></path> <path fill="none" stroke="#262B64" stroke-width="0.25" stroke-miterlimit="10" d="M43.551,21.659 c0.619,0.388,0.892,1.646,0.968,2.368c0.152,1.451-0.516,3.278-0.764,3.718"></path> <path fill="none" stroke="#262B64" stroke-width="0.25" stroke-miterlimit="10" d="M43.424,23.875 c-1.222,0.865-1.157-0.075-1.465-0.435c-0.142-0.164-0.378-0.205-0.593-0.246c-0.213-0.042-0.446-0.097-0.578-0.268 c-0.203-0.26-0.045-0.682,0.256-0.822s0.668-0.051,0.939,0.139c-0.049-0.551-0.935-0.513-1.291-0.938 c-0.176-0.212-0.218-0.542-0.463-0.673c-0.254-0.136-0.586,0.049-0.708,0.309c-0.122,0.26-0.093,0.562-0.063,0.846 c-0.252,0.17-0.597,0-0.813-0.211c-0.343-0.332-0.582-0.812-0.489-1.278c0.092-0.467,0.604-0.851,1.058-0.696 c-0.067-0.512,0.547-0.901,1.061-0.821c0.516,0.08,0.922,0.458,1.295,0.819c-0.494-0.32-0.59-1.128-1.16-1.274 c-0.18-0.046-0.375-0.011-0.549-0.075c-0.412-0.147-0.443-0.778-0.129-1.079s0.811-0.326,1.236-0.233 c-0.067-0.405-0.52-0.631-0.93-0.683c-0.412-0.053-0.844-0.001-1.23-0.148c-0.387-0.147-0.701-0.615-0.486-0.965 c0.66-0.628,1.857-0.564,2.445,0.131c-0.913-1.182-2.148-1.126-3.35-1.165c-0.223-0.008-0.451-0.004-0.658-0.085 c-0.207-0.082-0.463-0.493-0.448-0.712"></path> <path fill="none" stroke="#262B64" stroke-width="0.25" stroke-miterlimit="10" d="M42.014,20.194 c0.251,0.24,0.503,0.481,0.755,0.722"></path> <path fill="none" stroke="#262B64" stroke-width="0.25" stroke-miterlimit="10" d="M43.144,24.103c-0.331,1.477,1.07,1.197,0,3.284"></path> <path fill="#FFFFFF" d="M59.813,20.598c-0.155,0.016-0.463,0.178-0.533,0.318c-0.249,0.499-0.925,0.85-1.424,1.103 c0.211,0.003,0.899,0.038,1.053,0.181c0.154,0.143,0.271,0.329,0.165,0.509c-0.221,0.358-1.194,0.558-1.37,0.938 c-0.428,0.939-1.092,0.455-1.092,0.455s0.103,1.019-0.38,1.63c-0.251,0.316,0.33,1.579,0.33,1.579s0.594,1.013,0.179,1.272 c-0.611,0.382-0.204,0.229-1.197-0.153c-0.562-1.298-1.096-3.003-1.502-4.2c-0.154-0.453-1.519-1.305-1.49-1.783 c0.033-0.557,0.128-1.107,0.314-1.632c0.346-0.977,1.042-1.863,2.003-2.271c0.265-0.112,0.547-0.191,0.771-0.369 c0.448-0.359,0.385-1.042,0.519-1.598c0.363-1.541,1.692-2.684,3.177-3.269c0.391-0.154,0.769-0.406,1.108-0.651 c0.337-0.245,0.679-0.639,1.08-0.525c0.151,0.042,0.486,0.266,0.634,0.318c0.312,0.109,0.429-0.177,0.731-0.312 c0.57-0.255,1.242-0.384,1.819-0.142c0.576,0.243,0.714,1.051,0.438,1.607c-0.29,0.589-1.273,0.467-1.619-0.089 c-0.438,0.516-0.97,0.657-1.647,0.604c-0.675-0.054-1.743,0.05-2.133,0.602c0.333-0.024,0.92-0.071,1.221,0.068 c0.305,0.139,0.56,0.327,0.498,0.651c-0.093,0.486-0.672,0.733-1.169,0.777c-0.498,0.043-1.4,0.164-1.491,0.65 c0.35,0.018,0.964,0.034,1.193,0.295c0.23,0.261,0.201,0.914-0.103,1.086c-0.139,0.081-0.353,0.005-0.502,0.065 c-0.247,0.102-0.716,0.493-0.684,0.756c0.314-0.106,0.941-0.341,1.259-0.24c0.316,0.103,0.664,0.388,0.55,0.698 c0.434-0.184,0.909,0.177,1.04,0.625c0.129,0.449-0.088,1.118-0.447,1.422c-0.134,0.113-0.828,0.297-0.828,0.297 s0.132-0.313,0.04-0.464c-0.097-0.162-0.138-0.382-0.149-0.57C60.162,20.65,60.002,20.58,59.813,20.598"></path> <path fill="none" stroke="#262B64" stroke-width="0.25" stroke-miterlimit="10" d="M52.538,22.537 c0.013-0.134,0.028-0.361,0.048-0.495c0.21-1.376,0.968-2.718,2.193-3.399c0.433-0.24,0.951-0.436,1.147-0.885 c0.083-0.191,0.095-0.403,0.119-0.611c0.151-1.247,0.874-2.415,1.926-3.117c0.869-0.58,1.946-0.855,2.696-1.581 c0.166-0.16,0.336-0.352,0.566-0.369c0.313-0.024,0.552,0.287,0.858,0.359c0.425,0.101,0.797-0.266,1.182-0.469 c0.59-0.314,1.413-0.207,1.821,0.32c0.409,0.526,0.242,1.425-0.376,1.689c-0.613,0.264-1.438-0.351-1.271-0.995"></path> <path fill="none" stroke="#262B64" stroke-width="0.25" stroke-miterlimit="10" d="M57.42,16.946c0.2,0.625-0.052,1.318-0.452,1.841 c-0.4,0.523-0.938,0.924-1.419,1.376c-0.852,0.8-1.545,1.799-1.825,2.927c-0.048,0.198-0.085,0.504-0.104,0.708"></path> <path fill="none" stroke="#262B64" stroke-width="0.25" stroke-miterlimit="10" d="M56.205,21.659 c-0.619,0.388-0.892,1.646-0.968,2.368c-0.153,1.451,0.516,3.278,0.765,3.718"></path> <path fill="none" stroke="#262B64" stroke-width="0.25" stroke-miterlimit="10" d="M56.333,23.875 c1.222,0.865,1.157-0.075,1.465-0.435c0.141-0.164,0.379-0.205,0.592-0.246c0.214-0.042,0.445-0.097,0.579-0.268 c0.203-0.26,0.044-0.682-0.257-0.822s-0.669-0.051-0.941,0.139c0.051-0.551,0.938-0.513,1.292-0.938 c0.178-0.212,0.219-0.542,0.465-0.673c0.254-0.136,0.585,0.049,0.709,0.309c0.121,0.26,0.093,0.562,0.062,0.846 c0.251,0.17,0.596,0,0.813-0.211c0.342-0.332,0.58-0.812,0.488-1.278c-0.092-0.467-0.604-0.851-1.06-0.696 c0.067-0.512-0.544-0.901-1.059-0.821c-0.515,0.08-0.922,0.458-1.293,0.819c0.493-0.32,0.587-1.128,1.159-1.274 c0.18-0.046,0.375-0.011,0.548-0.075c0.412-0.147,0.443-0.778,0.128-1.079c-0.313-0.301-0.808-0.326-1.234-0.233 c0.067-0.405,0.519-0.631,0.93-0.683c0.411-0.053,0.842-0.001,1.229-0.148c0.387-0.147,0.702-0.615,0.485-0.965 c-0.659-0.628-1.854-0.564-2.443,0.131c0.912-1.182,2.146-1.126,3.348-1.165c0.225-0.008,0.453-0.004,0.658-0.085 c0.208-0.082,0.465-0.493,0.449-0.712"></path> <path fill="none" stroke="#262B64" stroke-width="0.25" stroke-miterlimit="10" d="M57.743,20.194 c-0.251,0.24-0.503,0.481-0.756,0.722"></path> <path fill="none" stroke="#262B64" stroke-width="0.25" stroke-miterlimit="10" d="M56.611,24.103c0.332,1.477-1.068,1.197,0,3.284"></path> <path fill="none" stroke="#262B64" stroke-width="0.25" stroke-miterlimit="10" d="M44.2,28.647c0.07-0.554-0.711-1.073-1.164-1.406 c-0.783-0.576-1.59-1.163-2.529-1.417c-0.767-0.206-1.661-0.216-2.201-0.792c-0.438-0.468-0.506-1.189-0.938-1.663 c-0.43-0.472-1.152-0.625-1.52-1.146c-0.23-0.327-0.299-0.771-0.615-1.019c-0.327-0.255-0.81-0.207-1.169-0.417 c-0.408-0.237-0.569-0.744-0.921-1.057c-0.413-0.369-1.031-0.414-1.582-0.322c-0.548,0.093-1.073,0.303-1.626,0.374 c-0.251,0.033-0.509,0.037-0.744,0.128c-0.734,0.28-0.921,1.28-0.633,2.005c0.233,0.584,0.738,1.094,1.366,1.19 c0.627,0.095,1.332-0.334,1.403-0.96c0.07-0.625-0.68-1.222-1.238-0.923"></path> <path fill="none" stroke="#262B64" stroke-width="0.25" stroke-miterlimit="10" d="M55.537,28.647 c-0.067-0.555,0.712-1.074,1.165-1.407c0.781-0.576,1.59-1.163,2.53-1.417c0.766-0.205,1.661-0.215,2.199-0.792 c0.439-0.469,0.508-1.189,0.939-1.664c0.428-0.471,1.15-0.625,1.52-1.145c0.229-0.327,0.297-0.771,0.614-1.019 c0.327-0.256,0.81-0.208,1.17-0.417c0.406-0.236,0.567-0.744,0.918-1.057c0.417-0.368,1.034-0.414,1.584-0.321 c0.548,0.093,1.074,0.302,1.628,0.374c0.249,0.032,0.508,0.037,0.743,0.127c0.732,0.281,0.92,1.281,0.63,2.005 c-0.23,0.585-0.737,1.095-1.364,1.19c-0.629,0.096-1.332-0.334-1.402-0.959c-0.072-0.625,0.679-1.222,1.237-0.923"></path> <path fill="none" stroke="#262B64" stroke-width="0.25" stroke-miterlimit="10" d="M45.249,39.728 c-0.35-0.428-0.994-0.849-1.505-1.06c-0.124,0.838-0.486,1.639-1.033,2.285c-0.05,0.058-0.101,0.116-0.124,0.188 c-0.031,0.097-0.007,0.203,0.017,0.302c0.194,0.85,0.233,1.927,0.165,2.795"></path> <path fill="none" stroke="#262B64" stroke-width="0.25" stroke-miterlimit="10" d="M44.901,40.62 c-0.202-0.085-0.545-0.212-0.746-0.297c-0.084,0.241-0.219,0.464-0.393,0.651c-0.08,0.084-0.168,0.164-0.212,0.271 c-0.045,0.109-0.037,0.232-0.028,0.348c0.08,1.04,0.072,2.213,0.151,3.252"></path> <path fill="#FFFFFF" d="M54.893,40.542l0.695-0.238l0.659,0.907l-0.15,3.551l0.877-0.543l0.134-3.027c0,0-0.514-0.752-0.631-1.031 c-0.164-0.391-0.419-1.642-0.419-1.642l-1.49,1.068L54.893,40.542z"></path> <path fill="none" stroke="#262B64" stroke-width="0.25" stroke-miterlimit="10" d="M54.537,39.703 c0.35-0.427,0.994-0.849,1.505-1.06c0.124,0.838,0.484,1.639,1.033,2.286c0.047,0.057,0.1,0.115,0.125,0.187 c0.03,0.097,0.005,0.202-0.018,0.302c-0.195,0.85-0.233,2.005-0.165,2.873"></path> <path fill="none" stroke="#262B64" stroke-width="0.25" stroke-miterlimit="10" d="M54.885,40.595 c0.201-0.086,0.544-0.213,0.746-0.298c0.084,0.241,0.218,0.465,0.391,0.652c0.081,0.083,0.17,0.164,0.214,0.271 s0.036,0.23,0.027,0.347c-0.079,1.04-0.071,2.212-0.15,3.252"></path> <path fill="none" stroke="#262B64" stroke-width="0.25" stroke-miterlimit="10" d="M43.708,33.26 c-0.029-0.795-0.031-1.806-0.061-2.601c-0.009-0.274-0.02-0.554,0.046-0.821c0.065-0.268,0.202-0.512,0.329-0.756 c0.639-1.212,1.117-2.506,1.423-3.839c0.065-0.287,0.124-0.578,0.261-0.836c0.104-0.2,0.25-0.373,0.393-0.546 c0.744-0.886,1.487-1.773,2.23-2.659l1.537-0.96l1.536,0.959c0.742,0.887,1.487,1.773,2.229,2.659 c0.147,0.173,0.292,0.347,0.396,0.545c0.136,0.26,0.193,0.551,0.259,0.837c0.307,1.334,0.785,2.628,1.424,3.84 c0.127,0.244,0.265,0.487,0.33,0.756c0.065,0.267,0.054,0.545,0.044,0.821c-0.027,0.794-0.029,1.805-0.06,2.6"></path> <path fill="none" stroke="#262B64" stroke-width="0.25" stroke-miterlimit="10" d="M44.794,34.057 c0.034-1.115,0.055-2.719,0.09-3.834c0.009-0.283,0.018-0.568,0.09-0.841c0.088-0.336,0.264-0.641,0.426-0.95 c0.467-0.885,0.82-1.827,1.053-2.798c0.057-0.235,0.105-0.475,0.213-0.692c0.105-0.222,0.267-0.412,0.426-0.601 c0.525-0.624,1.052-1.249,1.578-1.872l1.2-0.907l1.201,0.906c0.524,0.625,1.051,1.248,1.577,1.872 c0.161,0.189,0.32,0.379,0.428,0.601c0.104,0.218,0.155,0.458,0.211,0.692c0.232,0.971,0.587,1.915,1.052,2.799 c0.162,0.308,0.34,0.612,0.428,0.949c0.071,0.274,0.081,0.559,0.089,0.842c0.036,1.114,0.056,2.718,0.093,3.833"></path> <path fill="none" stroke="#262B64" stroke-width="0.25" stroke-miterlimit="10" d="M47.213,33.167 c0.017-0.959,0.034-1.917,0.051-2.876c0.004-0.222,0.008-0.447,0.073-0.658c0.055-0.179,0.152-0.342,0.248-0.504 c0.455-0.767,0.91-1.535,1.367-2.303l0.917-0.728l0.918,0.728c0.454,0.767,0.911,1.536,1.366,2.303 c0.096,0.162,0.193,0.324,0.247,0.503c0.065,0.212,0.069,0.437,0.073,0.658c0.017,0.958,0.035,1.917,0.051,2.876"></path> <path fill="none" stroke="#262B64" stroke-width="0.25" stroke-miterlimit="10" d="M96.295,24.272c0,0-14.341-20.167-46.379-20.167 v0.004c-32.038,0-46.38,20.167-46.38,20.167L31.422,54.17c0,0,8.257-6.82,18.589-6.855c10.244,0.116,18.4,6.851,18.4,6.851 L96.295,24.272z"></path> <path fill="#FFFFFF" d="M25.972,13.253c-0.196,0.023-0.374,0.124-0.539,0.233c-0.215,0.14-0.428,0.305-0.541,0.535 c-0.165,0.331-0.077,0.769,0.203,1.01c0.281,0.242,0.727,0.264,1.029,0.052c-0.021,0.043,0.015,0.092,0.049,0.126 c0.366,0.352,0.842,0.614,1.35,0.63c0.508,0.018,1.038-0.244,1.253-0.705"></path> <path fill="none" stroke="#262B64" stroke-width="0.25" stroke-miterlimit="10" d="M25.972,13.253 c-0.196,0.023-0.374,0.124-0.539,0.233c-0.215,0.14-0.428,0.305-0.541,0.535c-0.165,0.331-0.077,0.769,0.203,1.01 c0.281,0.242,0.727,0.264,1.029,0.052c-0.021,0.043,0.015,0.092,0.049,0.126c0.366,0.352,0.842,0.614,1.35,0.63 c0.508,0.018,1.038-0.244,1.253-0.705"></path> <path fill="#FFFFFF" d="M26.533,12.613c-0.1-0.253-0.006-0.568,0.215-0.727c0.22-0.159,0.549-0.146,0.757,0.028 c0.234,0.196,0.291,0.553,0.185,0.84c-0.105,0.287-0.347,0.507-0.615,0.653c-0.13,0.069-0.271,0.126-0.418,0.127 c-0.208,0.001-0.405-0.112-0.552-0.261c-0.396-0.406-0.438-1.099-0.122-1.57s0.945-0.696,1.498-0.566 c0.671,0.158,1.183,0.832,1.155,1.521c0.282-0.283,0.785-0.244,1.091,0.014c0.306,0.258,0.437,0.675,0.446,1.076 c0.01,0.355-0.078,0.738-0.34,0.979c-0.144,0.133-0.326,0.212-0.509,0.282c-0.286,0.106-0.587,0.194-0.892,0.167 c-0.303-0.025-0.609-0.188-0.737-0.465c-0.126-0.276-0.011-0.661,0.276-0.764"></path> <path fill="none" stroke="#262B64" stroke-width="0.25" stroke-miterlimit="10" d="M26.533,12.613 c-0.1-0.253-0.006-0.568,0.215-0.727c0.22-0.159,0.549-0.146,0.757,0.028c0.234,0.196,0.291,0.553,0.185,0.84 c-0.105,0.287-0.347,0.507-0.615,0.653c-0.13,0.069-0.271,0.126-0.418,0.127c-0.208,0.001-0.405-0.112-0.552-0.261 c-0.396-0.406-0.438-1.099-0.122-1.57s0.945-0.696,1.498-0.566c0.671,0.158,1.183,0.832,1.155,1.521 c0.282-0.283,0.785-0.244,1.091,0.014c0.306,0.258,0.437,0.675,0.446,1.076c0.01,0.355-0.078,0.738-0.34,0.979 c-0.144,0.133-0.326,0.212-0.509,0.282c-0.286,0.106-0.587,0.194-0.892,0.167c-0.303-0.025-0.609-0.188-0.737-0.465 c-0.126-0.276-0.011-0.661,0.276-0.764"></path> <path fill="#FFFFFF" d="M14.487,22.147c-0.323-0.039-0.668,0.058-0.9,0.286c-0.219,0.211-0.328,0.515-0.544,0.729 c-0.083,0.081-0.183,0.152-0.221,0.263c-0.062,0.176,0.071,0.36,0.221,0.474c0.306,0.229,0.719,0.306,1.086,0.203 c0.31-0.087,0.571-0.288,0.823-0.485c0.105-0.08,0.209-0.161,0.282-0.271c0.157-0.233,0.131-0.564-0.03-0.796 C15.044,22.318,14.769,22.181,14.487,22.147"></path> <path fill="#FFFFFF" d="M15.618,22.391c0.184-0.077,0.402-0.021,0.559,0.104c0.154,0.124,0.254,0.306,0.318,0.494 c0.097,0.29,0.111,0.635-0.076,0.877c-0.223,0.289-0.646,0.326-1.008,0.274c0.103,0.154,0.1,0.362,0.028,0.533 c-0.07,0.17-0.202,0.31-0.345,0.427c-0.334,0.276-0.77,0.463-1.197,0.397c-0.428-0.065-0.82-0.438-0.813-0.871"></path> <path fill="none" stroke="#262B64" stroke-width="0.25" stroke-miterlimit="10" d="M15.618,22.391 c0.184-0.077,0.402-0.021,0.559,0.104c0.154,0.124,0.254,0.306,0.318,0.494c0.097,0.29,0.111,0.635-0.076,0.877 c-0.223,0.289-0.646,0.326-1.008,0.274c0.103,0.154,0.1,0.362,0.028,0.533c-0.07,0.17-0.202,0.31-0.345,0.427 c-0.334,0.276-0.77,0.463-1.197,0.397c-0.428-0.065-0.82-0.438-0.813-0.871"></path> <path fill="#FFFFFF" d="M14.825,21.867c-0.107-0.299-0.452-0.492-0.763-0.428c-0.312,0.065-0.551,0.377-0.531,0.694 c0.008,0.127,0.052,0.252,0.119,0.359c0.249,0.408,0.812,0.568,1.262,0.405c0.448-0.164,0.767-0.605,0.842-1.078 c0.036-0.234,0.013-0.494-0.14-0.675c-0.083-0.098-0.195-0.165-0.312-0.219c-0.585-0.274-1.318-0.244-1.845,0.131 c-0.525,0.375-0.796,1.102-0.582,1.712c-0.32,0.004-0.643,0.135-0.848,0.38c-0.205,0.246-0.272,0.608-0.139,0.898 c0.068,0.146,0.182,0.265,0.307,0.364c0.275,0.215,0.636,0.333,0.977,0.263c0.342-0.072,0.644-0.353,0.685-0.698 c0.017-0.129-0.006-0.266-0.085-0.368c-0.157-0.204-0.461-0.196-0.715-0.17"></path> <path fill="none" stroke="#262B64" stroke-width="0.25" stroke-miterlimit="10" d="M14.825,21.867 c-0.107-0.299-0.452-0.492-0.763-0.428c-0.312,0.065-0.551,0.377-0.531,0.694c0.008,0.127,0.052,0.252,0.119,0.359 c0.249,0.408,0.812,0.568,1.262,0.405c0.448-0.164,0.767-0.605,0.842-1.078c0.036-0.234,0.013-0.494-0.14-0.675 c-0.083-0.098-0.195-0.165-0.312-0.219c-0.585-0.274-1.318-0.244-1.845,0.131c-0.525,0.375-0.796,1.102-0.582,1.712 c-0.32,0.004-0.643,0.135-0.848,0.38c-0.205,0.246-0.272,0.608-0.139,0.898c0.068,0.146,0.182,0.265,0.307,0.364 c0.275,0.215,0.636,0.333,0.977,0.263c0.342-0.072,0.644-0.353,0.685-0.698c0.017-0.129-0.006-0.266-0.085-0.368 c-0.157-0.204-0.461-0.196-0.715-0.17"></path> <path fill="#FFFFFF" d="M20.999,36.089c-0.143-0.026-0.277,0.104-0.303,0.246c-0.025,0.143,0.032,0.286,0.104,0.412 c0.048,0.083,0.104,0.163,0.18,0.223c0.067,0.052,0.148,0.085,0.229,0.116c0.266,0.103,0.561,0.182,0.828,0.087 c0.164-0.059,0.305-0.185,0.377-0.345s0.07-0.351-0.007-0.508c-0.134-0.28-0.46-0.402-0.762-0.47 c-0.128-0.029-0.274-0.047-0.374,0.035"></path> <path fill="#FFFFFF" d="M20.694,36.471c0.317-0.005,0.487,0.443,0.314,0.708c-0.172,0.266-0.538,0.34-0.848,0.28 c-0.402-0.078-0.779-0.376-0.857-0.778c-0.077-0.402,0.232-0.862,0.643-0.862c-0.214-0.278-0.051-0.717,0.252-0.897 c0.301-0.179,0.68-0.161,1.024-0.094c0.13-0.319,0.585-0.422,0.88-0.242c0.295,0.181,0.424,0.563,0.379,0.906 c0.283-0.077,0.596,0.05,0.799,0.263c0.203,0.212,0.313,0.5,0.374,0.788c0.086,0.394,0.074,0.855-0.214,1.139 c-0.207,0.203-0.518,0.269-0.81,0.261c-0.181-0.006-0.365-0.037-0.518-0.133c-0.152-0.097-0.267-0.267-0.257-0.448 c0.009-0.136,0.084-0.259,0.178-0.358c0.149-0.156,0.365-0.267,0.576-0.222c0.21,0.043,0.375,0.288,0.283,0.482 c-0.008,0.018-0.023,0.037-0.042,0.032s-0.003-0.042,0.009-0.028"></path> <path fill="none" stroke="#262B64" stroke-width="0.25" stroke-miterlimit="10" d="M20.694,36.471 c0.317-0.005,0.487,0.443,0.314,0.708c-0.172,0.266-0.538,0.34-0.848,0.28c-0.402-0.078-0.779-0.376-0.857-0.778 c-0.077-0.402,0.232-0.862,0.643-0.862c-0.214-0.278-0.051-0.717,0.252-0.897c0.301-0.179,0.68-0.161,1.024-0.094 c0.13-0.319,0.585-0.422,0.88-0.242c0.295,0.181,0.424,0.563,0.379,0.906c0.283-0.077,0.596,0.05,0.799,0.263 c0.203,0.212,0.313,0.5,0.374,0.788c0.086,0.394,0.074,0.855-0.214,1.139c-0.207,0.203-0.518,0.269-0.81,0.261 c-0.181-0.006-0.365-0.037-0.518-0.133c-0.152-0.097-0.267-0.267-0.257-0.448c0.009-0.136,0.084-0.259,0.178-0.358 c0.149-0.156,0.365-0.267,0.576-0.222c0.21,0.043,0.375,0.288,0.283,0.482c-0.008,0.018-0.023,0.037-0.042,0.032 s-0.003-0.042,0.009-0.028"></path> <path fill="#FFFFFF" d="M21.099,36.955c0.057,0.032,0.115,0.063,0.172,0.096c0.107,0.06,0.218,0.122,0.34,0.139 c0.12,0.017,0.258-0.02,0.326-0.12"></path> <path fill="none" stroke="#262B64" stroke-width="0.25" stroke-miterlimit="10" d="M21.099,36.955 c0.057,0.032,0.115,0.063,0.172,0.096c0.107,0.06,0.218,0.122,0.34,0.139c0.12,0.017,0.258-0.02,0.326-0.12"></path> <path fill="#FFFFFF" d="M72.492,14.579c-0.057-0.062-0.064-0.152-0.103-0.226c-0.118-0.225-0.469-0.235-0.593-0.457 c-0.04-0.07-0.05-0.152-0.048-0.233c0.002-0.155,0.05-0.312,0.149-0.43c0.1-0.121,0.255-0.196,0.412-0.184 c0.329,0.026,0.547,0.413,0.879,0.423c0.121,0.004,0.239-0.047,0.361-0.064c0.048-0.006,0.099-0.008,0.138,0.018 c0.094,0.063,0.044,0.209-0.019,0.305c-0.193,0.297-0.423,0.577-0.706,0.792c-0.069,0.054-0.143,0.104-0.229,0.123 C72.649,14.663,72.55,14.645,72.492,14.579"></path> <path fill="#FFFFFF" d="M73.992,13.201c0.195,0.023,0.373,0.124,0.538,0.232c0.216,0.141,0.427,0.306,0.541,0.535 c0.165,0.331,0.076,0.769-0.203,1.01c-0.28,0.241-0.728,0.264-1.03,0.052c0.024,0.043-0.014,0.092-0.048,0.125 c-0.365,0.353-0.842,0.614-1.349,0.631c-0.509,0.018-1.039-0.245-1.255-0.705"></path> <path fill="none" stroke="#262B64" stroke-width="0.25" stroke-miterlimit="10" d="M73.992,13.201 c0.195,0.023,0.373,0.124,0.538,0.232c0.216,0.141,0.427,0.306,0.541,0.535c0.165,0.331,0.076,0.769-0.203,1.01 c-0.28,0.241-0.728,0.264-1.03,0.052c0.024,0.043-0.014,0.092-0.048,0.125c-0.365,0.353-0.842,0.614-1.349,0.631 c-0.509,0.018-1.039-0.245-1.255-0.705"></path> <path fill="#FFFFFF" d="M73.429,12.561c0.101-0.253,0.006-0.569-0.214-0.728c-0.221-0.158-0.548-0.146-0.758,0.028 c-0.232,0.196-0.291,0.554-0.184,0.84c0.106,0.288,0.348,0.507,0.615,0.653c0.13,0.069,0.271,0.126,0.416,0.127 c0.211,0.001,0.408-0.112,0.554-0.261c0.396-0.407,0.438-1.1,0.122-1.57c-0.316-0.472-0.947-0.698-1.498-0.566 c-0.672,0.158-1.183,0.831-1.155,1.52c-0.282-0.283-0.786-0.243-1.09,0.014c-0.306,0.258-0.437,0.676-0.447,1.075 c-0.01,0.356,0.078,0.739,0.339,0.98c0.144,0.133,0.327,0.213,0.511,0.281c0.285,0.108,0.587,0.196,0.89,0.167 c0.304-0.025,0.61-0.188,0.736-0.464c0.128-0.277,0.012-0.662-0.275-0.765"></path> <path fill="none" stroke="#262B64" stroke-width="0.25" stroke-miterlimit="10" d="M73.429,12.561 c0.101-0.253,0.006-0.569-0.214-0.728c-0.221-0.158-0.548-0.146-0.758,0.028c-0.232,0.196-0.291,0.554-0.184,0.84 c0.106,0.288,0.348,0.507,0.615,0.653c0.13,0.069,0.271,0.126,0.416,0.127c0.211,0.001,0.408-0.112,0.554-0.261 c0.396-0.407,0.438-1.1,0.122-1.57c-0.316-0.472-0.947-0.698-1.498-0.566c-0.672,0.158-1.183,0.831-1.155,1.52 c-0.282-0.283-0.786-0.243-1.09,0.014c-0.306,0.258-0.437,0.676-0.447,1.075c-0.01,0.356,0.078,0.739,0.339,0.98 c0.144,0.133,0.327,0.213,0.511,0.281c0.285,0.108,0.587,0.196,0.89,0.167c0.304-0.025,0.61-0.188,0.736-0.464 c0.128-0.277,0.012-0.662-0.275-0.765"></path> <path fill="#FFFFFF" d="M85.476,22.096c0.323-0.039,0.666,0.058,0.901,0.285c0.218,0.211,0.328,0.516,0.543,0.729 c0.084,0.081,0.184,0.153,0.222,0.262c0.06,0.177-0.072,0.361-0.222,0.474c-0.305,0.229-0.719,0.307-1.087,0.204 c-0.307-0.086-0.568-0.288-0.821-0.485c-0.104-0.08-0.21-0.162-0.282-0.271c-0.158-0.233-0.132-0.564,0.027-0.796 C84.919,22.266,85.194,22.13,85.476,22.096"></path> <path fill="#FFFFFF" d="M84.344,22.339c-0.183-0.074-0.403-0.02-0.558,0.104c-0.156,0.124-0.254,0.306-0.317,0.495 c-0.099,0.29-0.112,0.634,0.073,0.876c0.225,0.289,0.649,0.326,1.011,0.274c-0.103,0.153-0.101,0.362-0.031,0.533 c0.071,0.17,0.204,0.311,0.348,0.428c0.333,0.276,0.768,0.463,1.197,0.396c0.427-0.065,0.82-0.438,0.811-0.871"></path> <path fill="none" stroke="#262B64" stroke-width="0.25" stroke-miterlimit="10" d="M84.344,22.339 c-0.183-0.074-0.403-0.02-0.558,0.104c-0.156,0.124-0.254,0.306-0.317,0.495c-0.099,0.29-0.112,0.634,0.073,0.876 c0.225,0.289,0.649,0.326,1.011,0.274c-0.103,0.153-0.101,0.362-0.031,0.533c0.071,0.17,0.204,0.311,0.348,0.428 c0.333,0.276,0.768,0.463,1.197,0.396c0.427-0.065,0.82-0.438,0.811-0.871"></path> <path fill="#FFFFFF" d="M85.139,21.815c0.107-0.299,0.451-0.492,0.763-0.428c0.31,0.065,0.549,0.377,0.53,0.694 c-0.006,0.128-0.053,0.251-0.118,0.36c-0.249,0.407-0.813,0.567-1.264,0.404c-0.448-0.164-0.768-0.606-0.842-1.078 c-0.035-0.234-0.011-0.494,0.14-0.675c0.083-0.097,0.197-0.165,0.312-0.218c0.585-0.275,1.319-0.245,1.846,0.131 c0.526,0.375,0.794,1.101,0.582,1.711c0.32,0.004,0.644,0.135,0.849,0.38c0.204,0.245,0.271,0.608,0.135,0.899 c-0.065,0.145-0.18,0.265-0.305,0.363c-0.273,0.214-0.636,0.332-0.976,0.262c-0.342-0.071-0.645-0.352-0.687-0.698 c-0.015-0.128,0.009-0.266,0.086-0.368c0.158-0.203,0.461-0.195,0.716-0.17"></path> <path fill="none" stroke="#262B64" stroke-width="0.25" stroke-miterlimit="10" d="M85.139,21.815 c0.107-0.299,0.451-0.492,0.763-0.428c0.31,0.065,0.549,0.377,0.53,0.694c-0.006,0.128-0.053,0.251-0.118,0.36 c-0.249,0.407-0.813,0.567-1.264,0.404c-0.448-0.164-0.768-0.606-0.842-1.078c-0.035-0.234-0.011-0.494,0.14-0.675 c0.083-0.097,0.197-0.165,0.312-0.218c0.585-0.275,1.319-0.245,1.846,0.131c0.526,0.375,0.794,1.101,0.582,1.711 c0.32,0.004,0.644,0.135,0.849,0.38c0.204,0.245,0.271,0.608,0.135,0.899c-0.065,0.145-0.18,0.265-0.305,0.363 c-0.273,0.214-0.636,0.332-0.976,0.262c-0.342-0.071-0.645-0.352-0.687-0.698c-0.015-0.128,0.009-0.266,0.086-0.368 c0.158-0.203,0.461-0.195,0.716-0.17"></path> <path fill="#FFFFFF" d="M78.966,36.037c0.142-0.026,0.274,0.104,0.302,0.247c0.022,0.142-0.033,0.285-0.104,0.411 c-0.049,0.083-0.104,0.165-0.18,0.224c-0.067,0.053-0.147,0.087-0.229,0.118c-0.264,0.102-0.561,0.181-0.825,0.087 c-0.166-0.059-0.309-0.186-0.378-0.346c-0.071-0.16-0.071-0.351,0.004-0.509c0.136-0.277,0.463-0.401,0.764-0.468 c0.127-0.029,0.273-0.047,0.374,0.035"></path> <path fill="#FFFFFF" d="M79.268,36.419c-0.316-0.005-0.486,0.443-0.314,0.708c0.172,0.265,0.539,0.34,0.851,0.28 c0.4-0.078,0.777-0.376,0.855-0.778c0.075-0.401-0.232-0.862-0.643-0.862c0.214-0.277,0.05-0.717-0.252-0.896 c-0.3-0.179-0.679-0.161-1.023-0.093c-0.131-0.321-0.586-0.423-0.882-0.243c-0.295,0.18-0.423,0.562-0.376,0.905 c-0.285-0.077-0.597,0.05-0.8,0.264c-0.203,0.212-0.313,0.5-0.375,0.788c-0.086,0.394-0.074,0.857,0.214,1.139 c0.208,0.204,0.518,0.27,0.809,0.261c0.182-0.005,0.365-0.036,0.52-0.132c0.151-0.096,0.266-0.268,0.256-0.448 c-0.008-0.135-0.085-0.259-0.178-0.358c-0.148-0.154-0.366-0.266-0.575-0.223c-0.211,0.045-0.376,0.289-0.285,0.483 c0.01,0.018,0.023,0.037,0.042,0.032c0.021-0.004,0.004-0.042-0.009-0.026"></path> <path fill="#FFFFFF" d="M78.863,36.903c-0.057,0.032-0.112,0.064-0.171,0.096c-0.108,0.061-0.218,0.122-0.339,0.139 c-0.122,0.017-0.257-0.019-0.328-0.12"></path> <path fill="none" stroke="#262B64" stroke-width="0.25" stroke-miterlimit="10" d="M78.863,36.903 c-0.057,0.032-0.112,0.064-0.171,0.096c-0.108,0.061-0.218,0.122-0.339,0.139c-0.122,0.017-0.257-0.019-0.328-0.12"></path> <path fill="#262B64" d="M13.298,66.418l4.791,9.66l-0.457,0.162l-2.267-4.629h-4.12L9.071,76.24l-0.455-0.162L13.298,66.418z M11.487,71.141h3.662l-1.852-3.877L11.487,71.141z"></path> <polygon fill="#262B64" points="27.373,76.32 19.671,67.518 19.671,76.078 19.202,76.24 19.202,66.338 26.903,75.086 26.903,66.578 27.373,66.418 "></polygon> <path fill="#262B64" d="M37.103,75.313c-0.457,0.352-0.957,0.619-1.497,0.807c-0.542,0.188-1.09,0.281-1.644,0.281 c-0.689,0-1.342-0.127-1.959-0.381c-0.617-0.256-1.16-0.617-1.631-1.082c-0.47-0.465-0.834-1.008-1.093-1.631 c-0.261-0.619-0.39-1.281-0.39-1.979s0.129-1.355,0.39-1.973c0.259-0.617,0.621-1.158,1.085-1.623 c0.467-0.465,1.002-0.826,1.611-1.088c0.608-0.258,1.248-0.387,1.919-0.387c0.618,0,1.192,0.094,1.724,0.287 c0.533,0.191,1.027,0.459,1.484,0.799l-0.35,0.375c-0.402-0.322-0.844-0.568-1.322-0.738c-0.479-0.168-0.969-0.254-1.469-0.254 c-0.627,0-1.22,0.119-1.777,0.355c-0.561,0.236-1.053,0.568-1.477,0.992c-0.426,0.426-0.756,0.918-0.993,1.477 s-0.356,1.15-0.356,1.777s0.119,1.219,0.356,1.779c0.237,0.559,0.567,1.049,0.993,1.475c0.424,0.426,0.916,0.756,1.477,0.992 c0.558,0.238,1.15,0.357,1.777,0.357c0.545,0,1.023-0.074,1.436-0.223s0.876-0.391,1.396-0.73L37.103,75.313z"></path> <polygon fill="#262B64" points="38.806,76.078 38.335,76.24 38.335,66.578 38.806,66.418 "></polygon> <polygon fill="#262B64" points="40.818,66.498 45.165,66.498 45.327,66.969 41.288,66.969 41.288,70.98 44.843,70.98 44.843,71.449 41.288,71.449 41.288,75.689 45.648,75.689 45.407,76.158 40.818,76.158 "></polygon> <polygon fill="#262B64" points="54.947,76.32 47.246,67.518 47.246,76.078 46.776,76.24 46.776,66.338 54.478,75.086 54.478,66.578 54.947,66.418 "></polygon> <polygon fill="#262B64" points="58.947,66.969 56.048,66.969 56.128,66.498 62.232,66.498 62.314,66.969 59.416,66.969 59.416,76.078 58.947,76.24 "></polygon> <polygon fill="#262B64" points="67.358,71.141 73.852,71.141 73.852,66.578 74.323,66.418 74.323,76.078 73.852,76.24 73.852,71.611 67.358,71.611 67.358,76.078 66.889,76.24 66.889,66.578 67.358,66.418 "></polygon> <path fill="#262B64" d="M83.137,76.078l-0.469,0.162v-1.611h-0.039c-0.242,0.494-0.631,0.904-1.167,1.234 c-0.278,0.17-0.572,0.303-0.887,0.396c-0.313,0.094-0.631,0.141-0.953,0.141c-0.394,0-0.786-0.059-1.179-0.174 c-0.396-0.115-0.764-0.305-1.102-0.563c-0.339-0.262-0.613-0.602-0.819-1.021c-0.204-0.42-0.309-0.916-0.309-1.488v-6.576 l0.472-0.16v6.695c0,0.877,0.271,1.566,0.816,2.066c0.546,0.5,1.252,0.752,2.12,0.752c0.269,0,0.568-0.043,0.899-0.129 c0.331-0.084,0.662-0.242,0.994-0.477c0.331-0.23,0.604-0.566,0.823-1.004c0.22-0.441,0.329-0.988,0.329-1.652v-6.092l0.469-0.16 V76.078z"></path> <path fill="#262B64" d="M85.03,66.498h4.348l0.16,0.471h-4.039v4.012h3.555v0.469h-3.555v4.24h4.361l-0.241,0.469H85.03V66.498z M85.727,65.746l1.088-1.598h0.362l1.1,1.598l-0.321,0.176l-0.953-1.301l-0.951,1.301L85.727,65.746z"></path> <polygon fill="#262B64" points="89.743,63.848 89.313,63.848 90.55,60.519 91.086,60.411 "></polygon> <path fill="#262B64" d="M24.472,84.07h2.488v3.334c-0.158,0.137-0.348,0.27-0.566,0.396c-0.219,0.129-0.457,0.244-0.718,0.35 c-0.259,0.107-0.528,0.191-0.808,0.254c-0.28,0.064-0.55,0.098-0.814,0.098c-0.58,0-1.131-0.109-1.65-0.328 c-0.521-0.219-0.979-0.525-1.373-0.922c-0.396-0.395-0.703-0.852-0.922-1.373c-0.219-0.52-0.327-1.07-0.327-1.65 s0.108-1.131,0.327-1.65s0.525-0.979,0.922-1.373c0.395-0.396,0.853-0.703,1.373-0.922c0.52-0.219,1.07-0.326,1.65-0.326 c0.467,0,0.929,0.076,1.385,0.236c0.455,0.158,0.877,0.385,1.261,0.678l-0.261,0.283c-0.437-0.289-0.828-0.492-1.175-0.617 s-0.75-0.186-1.21-0.186c-0.527,0-1.026,0.1-1.498,0.299c-0.471,0.201-0.885,0.479-1.242,0.836 c-0.359,0.359-0.639,0.773-0.838,1.244c-0.199,0.473-0.3,0.971-0.3,1.498s0.101,1.027,0.3,1.498s0.479,0.885,0.838,1.244 c0.357,0.357,0.771,0.637,1.242,0.836c0.472,0.199,0.971,0.299,1.498,0.299c0.467,0,0.916-0.078,1.346-0.236 c0.43-0.16,0.816-0.381,1.164-0.666v-2.738h-2.092V84.07z"></path> <path fill="#262B64" d="M31.175,88.23l-0.361,0.137v-0.545h-0.022c-0.15,0.197-0.31,0.352-0.475,0.463 c-0.165,0.115-0.403,0.172-0.712,0.172c-0.393,0-0.731-0.145-1.018-0.43c-0.287-0.287-0.43-0.645-0.43-1.074 c0-0.408,0.139-0.76,0.418-1.059c0.278-0.297,0.634-0.445,1.063-0.445c0.302,0,0.539,0.055,0.713,0.164s0.309,0.244,0.406,0.4h0.023 v-0.645c0-0.375-0.035-0.627-0.107-0.75c-0.072-0.125-0.266-0.188-0.583-0.188c-0.09,0-0.233,0.012-0.429,0.033 c-0.136,0.016-0.242,0.023-0.317,0.023l0.136-0.361c0.029,0,0.057-0.004,0.08-0.012c0.248-0.029,0.424-0.045,0.53-0.045 c0.257,0,0.46,0.033,0.61,0.102s0.261,0.154,0.328,0.256c0.068,0.102,0.109,0.201,0.125,0.303c0.015,0.104,0.021,0.219,0.021,0.346 V88.23z M28.852,87.76c0.223,0.225,0.496,0.334,0.821,0.334c0.315,0,0.586-0.109,0.807-0.334c0.223-0.221,0.334-0.49,0.334-0.807 s-0.111-0.586-0.334-0.809c-0.221-0.221-0.491-0.334-0.807-0.334c-0.325,0-0.599,0.113-0.821,0.334 c-0.222,0.223-0.333,0.492-0.333,0.809S28.63,87.539,28.852,87.76"></path> <path fill="#262B64" d="M32.464,84.297l0.396-0.137v0.633h0.021c0.121-0.225,0.254-0.396,0.402-0.514 c0.146-0.115,0.389-0.188,0.729-0.209v0.451c-0.34,0.008-0.616,0.109-0.83,0.307c-0.216,0.195-0.322,0.5-0.322,0.914v2.488 l-0.396,0.137V84.297z"></path> <path fill="#262B64" d="M38.829,80.09v8.141l-0.396,0.137v-0.895h-0.021c-0.174,0.301-0.418,0.541-0.736,0.719 c-0.316,0.176-0.663,0.266-1.039,0.266c-0.294,0-0.575-0.057-0.843-0.17s-0.503-0.271-0.706-0.475 c-0.204-0.203-0.362-0.439-0.475-0.707c-0.113-0.268-0.17-0.547-0.17-0.842s0.057-0.574,0.17-0.844 c0.112-0.268,0.271-0.502,0.475-0.705c0.203-0.203,0.438-0.361,0.706-0.475s0.549-0.17,0.843-0.17c0.376,0,0.719,0.088,1.029,0.266 c0.309,0.178,0.557,0.428,0.746,0.752h0.021v-4.861L38.829,80.09z M34.944,86.971c0.096,0.221,0.227,0.416,0.396,0.588 c0.17,0.17,0.365,0.301,0.588,0.395s0.458,0.141,0.707,0.141c0.248,0,0.484-0.047,0.707-0.141c0.221-0.094,0.417-0.225,0.587-0.395 c0.169-0.172,0.301-0.367,0.396-0.588c0.094-0.223,0.141-0.459,0.141-0.707c0-0.25-0.047-0.484-0.141-0.707 c-0.095-0.223-0.227-0.418-0.396-0.588c-0.17-0.17-0.366-0.301-0.587-0.396c-0.223-0.094-0.459-0.141-0.707-0.141 c-0.249,0-0.484,0.047-0.707,0.141c-0.223,0.096-0.418,0.227-0.588,0.396s-0.301,0.365-0.396,0.588 c-0.094,0.223-0.141,0.457-0.141,0.707C34.804,86.512,34.851,86.748,34.944,86.971"></path> <path fill="#262B64" d="M40.298,87.021c0.174,0.316,0.405,0.574,0.695,0.773c0.291,0.201,0.604,0.301,0.943,0.301 c0.233,0,0.471-0.039,0.708-0.113s0.453-0.213,0.649-0.408v0.453c-0.106,0.105-0.287,0.203-0.543,0.293 c-0.257,0.09-0.527,0.137-0.814,0.137c-0.33,0-0.635-0.064-0.909-0.193c-0.276-0.127-0.507-0.299-0.696-0.514 c-0.188-0.215-0.332-0.453-0.43-0.713s-0.146-0.514-0.146-0.762c0-0.256,0.049-0.516,0.146-0.781 c0.098-0.262,0.244-0.502,0.436-0.717c0.192-0.215,0.426-0.387,0.701-0.516c0.275-0.127,0.582-0.191,0.922-0.191 c0.384,0,0.729,0.084,1.035,0.256c0.305,0.168,0.531,0.385,0.683,0.648L40.298,87.021z M43.124,84.906 c-0.083-0.119-0.229-0.23-0.436-0.328s-0.432-0.146-0.672-0.146c-0.256,0-0.5,0.047-0.729,0.141 c-0.23,0.096-0.435,0.227-0.611,0.396c-0.178,0.17-0.314,0.363-0.412,0.582c-0.099,0.219-0.147,0.445-0.147,0.68 c0,0.119,0.019,0.273,0.056,0.463L43.124,84.906z"></path> <path fill="#262B64" d="M44.334,84.297l0.396-0.137v0.633h0.021c0.144-0.217,0.332-0.393,0.561-0.525 c0.229-0.131,0.492-0.197,0.785-0.197c0.408,0,0.748,0.115,1.023,0.346s0.413,0.553,0.413,0.965v2.85l-0.396,0.137v-2.883 c0-0.332-0.102-0.59-0.305-0.775c-0.204-0.186-0.448-0.277-0.735-0.277c-0.369,0-0.689,0.131-0.961,0.391s-0.406,0.59-0.406,0.988 v2.42l-0.396,0.137V84.297z"></path> <polygon fill="#262B64" points="53.569,84.07 59.04,84.07 59.04,80.227 59.436,80.09 59.436,88.23 59.04,88.367 59.04,84.465 53.569,84.465 53.569,88.23 53.173,88.367 53.173,80.227 53.569,80.09 "></polygon> <path fill="#262B64" d="M60.771,85.41c0.113-0.268,0.271-0.502,0.474-0.701c0.204-0.199,0.439-0.355,0.706-0.469 c0.268-0.113,0.55-0.17,0.843-0.17c0.302,0,0.586,0.057,0.854,0.17c0.267,0.113,0.5,0.27,0.7,0.469 c0.199,0.199,0.357,0.434,0.469,0.701c0.113,0.268,0.171,0.551,0.171,0.854s-0.058,0.586-0.171,0.852 c-0.111,0.27-0.27,0.504-0.469,0.703c-0.2,0.199-0.434,0.355-0.7,0.467c-0.269,0.115-0.553,0.172-0.854,0.172 c-0.293,0-0.575-0.057-0.843-0.172c-0.267-0.111-0.502-0.268-0.706-0.467c-0.202-0.199-0.36-0.434-0.474-0.703 c-0.114-0.266-0.171-0.549-0.171-0.852S60.656,85.678,60.771,85.41 M61.104,86.975c0.094,0.229,0.226,0.424,0.396,0.588 c0.169,0.168,0.365,0.297,0.587,0.391s0.459,0.141,0.706,0.141c0.249,0,0.485-0.047,0.706-0.141 c0.225-0.094,0.419-0.223,0.589-0.391c0.17-0.164,0.301-0.359,0.396-0.588c0.094-0.225,0.141-0.463,0.141-0.711 c0-0.25-0.047-0.486-0.141-0.713c-0.095-0.225-0.226-0.422-0.396-0.586c-0.17-0.168-0.364-0.297-0.589-0.393 c-0.221-0.094-0.457-0.141-0.706-0.141c-0.247,0-0.484,0.045-0.706,0.137c-0.222,0.09-0.418,0.221-0.587,0.391 c-0.171,0.168-0.303,0.367-0.396,0.592c-0.094,0.227-0.143,0.463-0.143,0.713C60.961,86.512,61.01,86.75,61.104,86.975"></path> <path fill="#262B64" d="M69.102,88.23l-0.395,0.137v-0.633h-0.024c-0.157,0.217-0.333,0.393-0.525,0.525 c-0.193,0.129-0.445,0.197-0.763,0.197c-0.438,0-0.796-0.113-1.073-0.34c-0.279-0.227-0.42-0.551-0.42-0.971v-2.85l0.397-0.137v2.85 c0,0.354,0.102,0.623,0.305,0.809c0.204,0.184,0.468,0.275,0.791,0.275c0.339,0,0.642-0.131,0.909-0.395 c0.267-0.264,0.403-0.592,0.403-0.984v-2.418l0.395-0.137V88.23z"></path> <path fill="#262B64" d="M72.007,84.885c-0.098-0.129-0.208-0.236-0.327-0.322c-0.122-0.088-0.271-0.131-0.453-0.131 c-0.188,0-0.369,0.068-0.542,0.203c-0.174,0.137-0.26,0.318-0.26,0.543c0,0.213,0.039,0.377,0.123,0.498 c0.084,0.119,0.242,0.219,0.476,0.293h0.021c0.203,0.076,0.369,0.141,0.499,0.193c0.128,0.053,0.251,0.125,0.373,0.215 c0.12,0.09,0.214,0.203,0.281,0.338c0.067,0.137,0.103,0.303,0.103,0.498c0,0.309-0.11,0.594-0.328,0.854 c-0.22,0.26-0.529,0.391-0.928,0.391c-0.203,0-0.382-0.041-0.53-0.125c-0.152-0.082-0.318-0.203-0.498-0.361l0.248-0.305 c0.098,0.121,0.209,0.221,0.335,0.305c0.124,0.082,0.276,0.123,0.457,0.123c0.077,0,0.162-0.012,0.26-0.039 c0.098-0.025,0.191-0.068,0.278-0.129c0.085-0.061,0.158-0.141,0.22-0.244c0.06-0.102,0.091-0.227,0.091-0.379 c0-0.285-0.069-0.486-0.211-0.604c-0.139-0.117-0.358-0.225-0.659-0.322h-0.012c-0.158-0.055-0.286-0.1-0.38-0.143 c-0.093-0.041-0.189-0.104-0.287-0.186c-0.098-0.084-0.178-0.189-0.237-0.316c-0.062-0.129-0.092-0.283-0.092-0.463 c0-0.369,0.128-0.662,0.379-0.877c0.253-0.215,0.545-0.322,0.876-0.322c0.151,0,0.308,0.037,0.471,0.113 c0.162,0.074,0.317,0.199,0.469,0.373L72.007,84.885z"></path> <path fill="#262B64" d="M73.363,87.021c0.174,0.316,0.404,0.574,0.694,0.773c0.291,0.201,0.604,0.301,0.943,0.301 c0.233,0,0.471-0.039,0.709-0.113c0.237-0.074,0.452-0.213,0.648-0.408v0.453c-0.106,0.105-0.286,0.203-0.544,0.293 c-0.255,0.09-0.526,0.137-0.813,0.137c-0.331,0-0.634-0.064-0.909-0.193c-0.275-0.127-0.507-0.299-0.694-0.514 c-0.189-0.215-0.331-0.453-0.43-0.713c-0.1-0.26-0.146-0.514-0.146-0.762c0-0.256,0.047-0.516,0.146-0.781 c0.099-0.262,0.241-0.502,0.436-0.717c0.191-0.215,0.425-0.387,0.7-0.516c0.274-0.127,0.583-0.191,0.922-0.191 c0.383,0,0.728,0.084,1.033,0.256c0.306,0.168,0.533,0.385,0.685,0.648L73.363,87.021z M76.188,84.906 c-0.082-0.119-0.228-0.23-0.436-0.328c-0.207-0.098-0.43-0.146-0.671-0.146c-0.257,0-0.5,0.047-0.729,0.141 c-0.232,0.096-0.435,0.227-0.61,0.396c-0.179,0.17-0.316,0.363-0.414,0.582s-0.147,0.445-0.147,0.68 c0,0.119,0.019,0.273,0.056,0.463L76.188,84.906z"></path> <path fill="#262B64" d="M79.105,84.885c-0.098-0.129-0.208-0.236-0.328-0.322c-0.121-0.088-0.271-0.131-0.453-0.131 c-0.188,0-0.369,0.068-0.542,0.203c-0.174,0.137-0.259,0.318-0.259,0.543c0,0.213,0.041,0.377,0.124,0.498 c0.083,0.119,0.24,0.219,0.475,0.293h0.021c0.204,0.076,0.37,0.141,0.5,0.193c0.127,0.053,0.251,0.125,0.373,0.215 c0.119,0.09,0.213,0.203,0.28,0.338c0.068,0.137,0.103,0.303,0.103,0.498c0,0.309-0.108,0.594-0.327,0.854 c-0.218,0.26-0.526,0.391-0.929,0.391c-0.202,0-0.378-0.041-0.53-0.125c-0.148-0.082-0.314-0.203-0.496-0.361l0.249-0.305 c0.099,0.121,0.208,0.221,0.333,0.305c0.124,0.082,0.277,0.123,0.457,0.123c0.076,0,0.161-0.012,0.262-0.039 c0.096-0.025,0.188-0.068,0.275-0.129s0.161-0.141,0.222-0.244c0.06-0.102,0.09-0.227,0.09-0.379c0-0.285-0.07-0.486-0.21-0.604 s-0.359-0.225-0.661-0.322h-0.011c-0.158-0.055-0.283-0.1-0.38-0.143c-0.093-0.041-0.189-0.104-0.286-0.186 c-0.099-0.084-0.179-0.189-0.238-0.316c-0.061-0.129-0.089-0.283-0.089-0.463c0-0.369,0.124-0.662,0.375-0.877 c0.255-0.215,0.546-0.322,0.877-0.322c0.151,0,0.308,0.037,0.471,0.113c0.162,0.074,0.317,0.199,0.47,0.373L79.105,84.885z"></path> </svg> 